<svg version="1.1" id="Layer_1" xmlns="http://www.w3.org/2000/svg" xmlns:xlink="http://www.w3.org/1999/xlink" x="0px" y="0px"
	 width="100%" viewBox="0 0 363 549" enable-background="new 0 0 363 549" xml:space="preserve">
<path fill="#FEFEFE" opacity="1.000000" stroke="none" 
	d="
M1.000000,17.000000 
	C1.000000,11.672647 1.000000,6.345295 1.000000,1.037214 
	C122.000008,1.037214 243.000015,1.037214 364.000000,1.037214 
	C364.000000,6.068820 364.000000,11.063211 363.656769,16.507610 
	C361.598572,15.968978 359.883636,14.980337 358.094971,13.543056 
	C358.021301,11.160384 358.021301,9.226353 358.021301,7.269647 
	C240.733719,7.269647 123.931717,7.269647 6.831306,7.269647 
	C6.831306,9.690036 6.831306,11.840794 6.496225,14.024145 
	C4.440763,15.037827 2.720382,16.018913 1.000000,17.000000 
z"/>
<path fill="#F3F3F3" opacity="1.000000" stroke="none" 
	d="
M1.000000,17.463884 
	C2.720382,16.018913 4.440763,15.037827 6.576992,14.456148 
	C6.938784,16.901661 6.884728,18.947763 6.470862,21.081455 
	C5.407458,24.124596 4.090167,27.079752 4.088238,30.035765 
	C3.988400,182.986252 3.893682,335.936981 4.127770,488.887207 
	C4.158935,509.249908 1.867638,529.742554 6.000000,550.000000 
	C4.334660,550.000000 2.669321,550.000000 1.001990,550.000000 
	C1.000000,372.642578 1.000000,195.285187 1.000000,17.463884 
z"/>
<path fill="#F3F3F3" opacity="1.000000" stroke="none" 
	d="
M358.168671,13.991698 
	C359.883636,14.980337 361.598572,15.968978 363.656769,16.978809 
	C364.000000,194.666672 364.000000,372.333344 363.997742,550.000000 
	C362.663391,550.000000 361.331299,550.000000 359.506714,549.598816 
	C359.676117,543.470032 360.912842,537.742859 360.916412,532.014832 
	C361.019745,365.107178 361.000031,198.199448 360.999298,31.291725 
	C360.999298,29.626020 361.345947,27.854774 360.892517,26.321552 
	C360.336578,24.441666 359.107391,22.760881 358.095215,20.561016 
	C358.070282,18.082577 358.119476,16.037138 358.168671,13.991698 
z"/>
<path fill="#ECECEC" opacity="1.000000" stroke="none" 
	d="
M358.169312,20.994015 
	C359.107391,22.760881 360.336578,24.441666 360.892517,26.321552 
	C361.345947,27.854774 360.999298,29.626020 360.999298,31.291725 
	C361.000031,198.199448 361.019745,365.107178 360.916412,532.014832 
	C360.912842,537.742859 359.676117,543.470032 359.007080,549.598816 
	C357.285645,550.000000 355.571289,550.000000 353.463623,549.651855 
	C354.373779,546.877808 355.677307,544.451904 357.280212,541.729248 
	C357.719330,540.123657 357.981323,538.814941 357.981415,537.506165 
	C357.988708,404.635925 357.976227,271.765717 357.983643,138.433716 
	C358.003357,132.639008 357.998260,127.306046 358.006592,121.973099 
	C358.059174,88.313400 358.114746,54.653706 358.169312,20.994015 
z"/>
<path fill="#ECECEC" opacity="1.000000" stroke="none" 
	d="
M6.428462,550.000000 
	C1.867638,529.742554 4.158935,509.249908 4.127770,488.887207 
	C3.893682,335.936981 3.988400,182.986252 4.088238,30.035765 
	C4.090167,27.079752 5.407458,24.124596 6.550636,21.544516 
	C7.005179,60.911846 7.020139,99.903702 7.025074,139.370728 
	C7.010515,272.179077 7.002109,404.512238 7.043687,536.845398 
	C7.044230,538.572327 7.680041,540.299072 8.049940,542.376587 
	C9.387025,545.151550 10.693509,547.575745 11.999996,550.000000 
	C10.285642,550.000000 8.571282,550.000000 6.428462,550.000000 
z"/>
<path fill="#DBDCDB" opacity="1.000000" stroke="none" 
	d="
M12.468654,550.000000 
	C10.693509,547.575745 9.387025,545.151550 8.477418,542.370361 
	C10.588306,542.021851 12.302318,542.030273 14.049526,542.389282 
	C15.823366,544.112976 17.393684,546.249817 19.343531,546.684692 
	C22.470961,547.382141 25.849661,546.993896 29.122175,546.994141 
	C131.442215,547.001343 233.762238,547.003662 336.082275,546.979553 
	C338.707184,546.978943 341.364319,546.340759 343.949219,546.591003 
	C347.698517,546.953979 350.008759,545.677612 351.412292,542.024109 
	C353.554138,542.015015 355.267487,542.020508 356.980835,542.026001 
	C355.677307,544.451904 354.373779,546.877808 353.035156,549.651855 
	C239.645767,550.000000 126.291542,550.000000 12.468654,550.000000 
z"/>
<path fill="#000000" opacity="1.000000" stroke="none" 
	d="
M7.035098,138.895569 
	C7.020139,99.903702 7.005179,60.911846 6.910446,21.456928 
	C6.884728,18.947763 6.938784,16.901661 6.912073,14.423553 
	C6.831306,11.840794 6.831306,9.690036 6.831306,7.269647 
	C123.931717,7.269647 240.733719,7.269647 358.021301,7.269647 
	C358.021301,9.226353 358.021301,11.160384 358.094971,13.543058 
	C358.119476,16.037138 358.070282,18.082577 358.095215,20.561012 
	C358.114746,54.653706 358.059174,88.313400 358.006592,121.973099 
	C357.998260,127.306046 358.003357,132.639008 357.519409,138.482178 
	C241.532700,138.995056 126.028900,138.998001 10.525102,138.995987 
	C9.361766,138.995972 8.198432,138.930481 7.035098,138.895569 
M23.948717,27.260891 
	C24.271336,29.142746 24.593954,31.024601 24.972082,33.230244 
	C28.109432,32.351631 32.361050,35.026855 32.496021,29.158100 
	C28.111792,31.584345 26.800497,31.030993 26.738510,26.580315 
	C26.690598,23.140244 27.131701,19.693357 27.308531,16.971020 
	C29.369164,14.966002 34.018665,17.682182 32.637741,12.174570 
	C27.695377,12.174570 22.738354,12.174778 17.781328,12.174503 
	C13.901327,12.174289 11.803664,14.390797 10.075751,18.113201 
	C12.362205,17.202631 14.018783,16.542906 17.242027,15.259263 
	C15.694029,22.086544 14.484514,27.420979 13.251082,32.860901 
	C13.937160,32.860901 15.983720,33.098759 16.054283,32.825794 
	C17.477894,27.318853 18.674494,21.753225 19.988899,15.876579 
	C21.281801,16.003580 22.816292,16.154312 23.947693,16.265450 
	C23.947693,20.011208 23.947693,23.162704 23.948717,27.260891 
M234.847107,17.831593 
	C234.244583,18.102493 233.127014,18.358353 233.118607,18.646606 
	C233.026871,21.787489 233.096191,24.933733 233.169373,28.077423 
	C233.174713,28.306751 233.550919,28.527443 234.033798,29.059904 
	C234.651962,28.090311 235.175751,27.268747 235.723175,26.410109 
	C236.906876,27.226843 238.062576,28.024256 239.218277,28.821669 
	C239.354691,28.638414 239.491119,28.455160 239.627533,28.271906 
	C238.835205,27.028309 238.042862,25.784714 237.253525,24.545822 
	C237.965500,23.468935 238.626541,22.469086 239.287582,21.469234 
	C239.124313,21.326206 238.961044,21.183180 238.797791,21.040152 
	C237.696686,21.812817 236.595566,22.585484 235.009552,23.698421 
	C235.009552,21.563654 235.009552,20.091656 234.847107,17.831593 
M256.157898,27.795191 
	C254.772522,27.375994 253.387131,26.956797 252.001755,26.537600 
	C252.114914,26.133810 252.228073,25.730021 252.341248,25.326231 
	C253.937469,25.152460 255.533691,24.978689 257.129913,24.804920 
	C257.317383,24.338612 257.504852,23.872303 257.692322,23.405994 
	C256.143311,22.616299 254.215286,20.859785 253.140976,21.280951 
	C251.789688,21.810703 250.163406,24.272337 250.374115,25.634588 
	C250.900543,29.038076 253.357513,29.974915 256.157898,27.795191 
M350.228058,24.063206 
	C350.598724,23.653269 350.969391,23.243334 351.340088,22.833410 
	C350.740692,22.513021 350.141296,22.192633 349.541870,21.872250 
	C349.594086,22.540352 349.646301,23.208454 350.228058,24.063206 
M345.046448,21.641285 
	C345.137085,22.065214 345.227722,22.489145 345.318359,22.913078 
	C345.683807,22.744181 346.049225,22.575281 346.414673,22.406378 
	C346.121307,22.091347 345.827942,21.776316 345.046448,21.641285 
z"/>
<path fill="#F5F5F5" opacity="1.000000" stroke="none" 
	d="
M7.025074,139.370728 
	C8.198432,138.930481 9.361766,138.995972 10.525102,138.995987 
	C126.028900,138.998001 241.532700,138.995056 357.500732,138.943954 
	C357.976227,271.765717 357.988708,404.635925 357.981415,537.506165 
	C357.981323,538.814941 357.719330,540.123657 357.280212,541.729248 
	C355.267487,542.020508 353.554138,542.015015 350.945587,542.011108 
	C238.039032,542.021362 126.027679,542.030029 14.016329,542.038696 
	C12.302318,542.030273 10.588306,542.021851 8.446817,542.019653 
	C7.680041,540.299072 7.044230,538.572327 7.043687,536.845398 
	C7.002109,404.512238 7.010515,272.179077 7.025074,139.370728 
M25.525520,157.202103 
	C25.268681,157.388474 25.094223,157.633499 24.412748,158.546478 
	C24.296944,172.154388 24.169779,185.762253 24.105562,199.370407 
	C24.102905,199.933121 24.689877,200.498611 25.202116,201.474487 
	C25.388483,201.731339 25.633518,201.905807 26.546490,202.587265 
	C44.154011,202.703094 61.761494,202.827728 79.369202,202.894913 
	C79.932579,202.897064 80.498207,202.310165 81.474472,201.797882 
	C81.731308,201.611511 81.905769,201.366486 82.587250,200.453522 
	C82.703049,186.845612 82.830208,173.237762 82.894424,159.629608 
	C82.897087,159.066895 82.310120,158.501389 81.797874,157.525513 
	C81.611496,157.268677 81.366470,157.094223 80.453514,156.412735 
	C62.845993,156.296906 45.238503,156.172287 27.630796,156.105087 
	C27.067419,156.102951 26.501797,156.689835 25.525520,157.202103 
M218.525513,157.202087 
	C218.268661,157.388443 218.094193,157.633484 217.412720,158.546463 
	C217.296921,172.154388 217.169754,185.762238 217.105545,199.370407 
	C217.102890,199.933121 217.689865,200.498611 218.202087,201.474487 
	C218.388443,201.731339 218.633484,201.905807 219.546463,202.587265 
	C237.154007,202.703094 254.761536,202.827713 272.369263,202.894958 
	C272.932678,202.897110 273.498291,202.310196 274.474487,201.797882 
	C274.731293,201.611496 274.905731,201.366470 275.587219,200.453522 
	C275.703033,186.845596 275.830200,173.237732 275.894440,159.629562 
	C275.897125,159.066864 275.310089,158.501373 274.797852,157.525543 
	C274.611542,157.268692 274.366547,157.094223 273.453522,156.412766 
	C255.845978,156.296921 238.238480,156.172287 220.630753,156.105072 
	C220.067383,156.102936 219.501770,156.689835 218.525513,157.202087 
M155.549820,202.588837 
	C172.821472,202.704376 190.093079,202.828857 207.364914,202.895584 
	C207.927994,202.897766 208.493332,202.311172 209.472870,201.798706 
	C209.732010,201.611130 209.907394,201.364090 210.588837,200.450180 
	C210.704346,186.844818 210.831207,173.239502 210.895142,159.633911 
	C210.897797,159.071487 210.311142,158.506287 209.798706,157.527130 
	C209.611130,157.267990 209.364090,157.092606 208.450180,156.411163 
	C191.178528,156.295624 173.906921,156.171158 156.635086,156.104416 
	C156.072021,156.102234 155.506668,156.688812 154.527130,157.201294 
	C154.267990,157.388870 154.092606,157.635910 153.411163,158.549820 
	C153.295654,172.155182 153.168808,185.760498 153.104874,199.366089 
	C153.102219,199.928513 153.688843,200.493713 154.201294,201.472870 
	C154.388870,201.732010 154.635910,201.907394 155.549820,202.588837 
M284.961487,202.993088 
	C302.297363,202.990875 319.633270,202.988647 337.543610,202.739822 
	C338.357849,201.816315 339.172089,200.892792 339.993164,199.038422 
	C339.990936,185.702621 339.988678,172.366821 339.739838,158.456497 
	C338.816345,157.642227 337.892883,156.827957 336.038513,156.006912 
	C318.702637,156.009125 301.366730,156.011353 283.456390,156.260162 
	C282.642151,157.183685 281.827911,158.107208 281.006836,159.961578 
	C281.009064,173.297379 281.011322,186.633179 281.260162,200.543518 
	C282.183624,201.357788 283.107117,202.172058 284.961487,202.993088 
M90.545364,202.586731 
	C108.153763,202.702682 125.762131,202.827408 143.370712,202.894730 
	C143.934158,202.896866 144.499863,202.309814 145.475006,201.797607 
	C145.731094,201.611649 145.905243,201.367294 146.586731,200.454651 
	C146.702637,186.845871 146.829895,173.237167 146.894211,159.628143 
	C146.896881,159.065338 146.309784,158.499771 145.797607,157.524994 
	C145.611649,157.268906 145.367294,157.094757 144.454651,156.413269 
	C126.846252,156.297333 109.237885,156.172592 91.629303,156.105301 
	C91.065857,156.103165 90.500153,156.690186 89.525032,157.202423 
	C89.268959,157.388382 89.094803,157.632736 88.413284,158.545364 
	C88.297379,172.154129 88.170105,185.762833 88.105797,199.371841 
	C88.103134,199.934647 88.690231,200.500229 89.202431,201.474991 
	C89.388405,201.731064 89.632759,201.905212 90.545364,202.586731 
M77.022552,477.055634 
	C77.017776,492.215210 76.997757,507.374817 77.015739,522.534363 
	C77.022926,528.594055 78.349190,529.981323 84.243706,529.982666 
	C149.380249,529.997253 214.516800,529.996582 279.653351,529.983704 
	C285.605713,529.982483 286.972473,528.601501 286.983521,522.637329 
	C287.009399,508.643829 286.994690,494.650238 286.990662,480.656708 
	C286.988434,472.961060 286.052155,472.010010 278.448547,472.009583 
	C228.471649,472.006897 178.494766,472.008179 128.517868,472.008179 
	C113.691391,472.008179 98.864761,472.044006 84.038559,471.980408 
	C80.766586,471.966370 78.032860,472.494751 77.022552,477.055634 
M298.500000,343.009460 
	C289.013733,343.009460 279.527344,342.979248 270.041260,343.020935 
	C264.440491,343.045532 263.031342,344.475433 263.019775,350.158417 
	C262.989319,365.136688 262.983734,380.115112 263.023224,395.093353 
	C263.037323,400.439636 264.523926,401.964630 269.793732,401.974915 
	C289.598358,402.013519 309.403076,402.013580 329.207703,401.974915 
	C334.476593,401.964630 335.962708,400.439240 335.976776,395.091919 
	C336.016205,380.113678 336.010681,365.135284 335.980194,350.157013 
	C335.968597,344.474609 334.559509,343.044495 328.957306,343.020996 
	C319.138367,342.979797 309.319122,343.009491 298.500000,343.009460 
M63.500000,343.000183 
	C53.851639,343.000427 44.200634,343.134064 34.556065,342.942993 
	C29.938597,342.851532 27.889570,344.462067 27.940456,349.296082 
	C28.103287,364.765015 28.103329,380.237823 27.940458,395.706757 
	C27.889534,400.543243 29.947090,402.089020 34.558178,402.057526 
	C54.519375,401.921082 74.482574,401.920990 94.443771,402.057556 
	C99.056580,402.089111 101.110451,400.539581 101.059563,395.704834 
	C100.896744,380.235901 100.896736,364.763123 101.059570,349.294189 
	C101.110474,344.458588 99.057777,342.855591 94.442093,342.942810 
	C84.464600,343.131378 74.481064,343.000427 63.500000,343.000183 
M107.026962,397.947968 
	C107.585350,401.678070 110.233185,402.028259 113.307182,402.021362 
	C133.109863,401.976898 152.913300,401.914398 172.715027,402.058868 
	C177.561386,402.094238 179.104233,400.034119 179.057480,395.428955 
	C178.902023,380.120850 178.899521,364.809113 179.058395,349.501068 
	C179.106812,344.836639 177.431885,342.905945 172.645050,342.941101 
	C153.009735,343.085297 133.372742,342.989624 113.736389,343.008331 
	C107.915535,343.013885 107.017700,343.892487 107.009445,349.617828 
	C106.986641,365.426727 107.003540,381.235718 107.026962,397.947968 
M211.500000,343.001221 
	C204.846237,343.001373 198.187424,343.159790 191.540451,342.947418 
	C186.906693,342.799347 184.890823,344.494263 184.941528,349.313690 
	C185.104202,364.781921 185.104691,380.254059 184.941498,395.722260 
	C184.890320,400.572784 186.978378,402.088531 191.575089,402.056580 
	C211.202667,401.919983 230.831772,402.012970 250.460281,401.989227 
	C256.113220,401.982361 256.984375,401.059509 256.991974,395.188904 
	C257.011597,380.051666 257.012634,364.914368 256.991486,349.777130 
	C256.983124,343.794281 256.154236,343.013275 249.927292,343.005798 
	C237.451538,342.990845 224.975769,343.001282 211.500000,343.001221 
M270.788269,336.991119 
	C289.933044,336.991119 309.077850,337.000092 328.222626,336.986206 
	C334.806641,336.981445 335.981293,335.777954 335.987244,329.076752 
	C335.999969,314.759796 336.012817,300.442749 335.980316,286.125885 
	C335.967407,280.456848 334.557800,279.028992 328.923492,279.020447 
	C309.279358,278.990692 289.635101,278.989838 269.990967,279.021423 
	C264.572266,279.030151 263.043213,280.482025 263.026154,285.712067 
	C262.977753,300.528290 263.083618,315.345367 262.966644,330.160828 
	C262.928070,335.041870 265.003235,337.300232 270.788269,336.991119 
M279.513123,465.991791 
	C295.990051,465.991791 312.466980,466.012146 328.943848,465.980255 
	C334.411285,465.969666 335.955444,464.545166 335.973206,459.357025 
	C336.024506,444.378204 335.954529,429.398895 336.013855,414.420135 
	C336.031067,410.075073 334.135803,407.981079 329.719604,407.990479 
	C309.581238,408.033325 289.442657,408.034149 269.304291,407.989746 
	C264.900513,407.980011 262.970184,410.038971 262.986786,414.396240 
	C263.044525,429.541473 263.029022,444.687073 262.996490,459.832458 
	C262.987640,463.942078 264.876068,466.025818 269.033661,465.995026 
	C272.195709,465.971588 275.358093,465.991241 279.513123,465.991791 
M298.500000,215.009491 
	C289.013855,215.009506 279.527557,214.979324 270.041595,215.020950 
	C264.440582,215.045517 263.031708,216.475281 263.019775,222.157990 
	C262.988983,236.803223 262.983368,251.448654 263.023224,266.093842 
	C263.037781,271.439667 264.524170,272.964691 269.794098,272.974945 
	C289.598480,273.013550 309.402985,273.013580 329.207367,272.974915 
	C334.476410,272.964630 335.962250,271.439301 335.976776,266.092377 
	C336.016602,251.447189 336.011047,236.801773 335.980194,222.156540 
	C335.968231,216.474457 334.559418,215.044510 328.956970,215.021011 
	C319.138153,214.979843 309.319000,215.009506 298.500000,215.009491 
M73.500000,215.000610 
	C60.524796,215.000656 47.548180,215.109665 34.575138,214.942184 
	C29.976492,214.882812 27.887636,216.425400 27.940462,221.276428 
	C28.105286,236.412369 28.080227,251.551880 27.951202,266.688507 
	C27.913879,271.067017 29.451057,273.073761 34.040382,273.048035 
	C54.334274,272.934174 74.629379,272.949738 94.923515,273.039429 
	C99.063805,273.057770 101.063362,271.568939 101.036270,267.223969 
	C100.939842,251.754150 100.939209,236.282990 101.037025,220.813187 
	C101.064339,216.494034 99.129143,214.874222 94.960045,214.962112 
	C88.142784,215.105804 81.320274,215.000732 73.500000,215.000610 
M187.349304,408.464233 
	C186.566406,410.336853 185.126923,412.201569 185.104248,414.083344 
	C184.919876,429.392090 185.062973,444.704498 184.959946,460.014771 
	C184.931641,464.221100 186.588165,466.056976 190.871063,466.038330 
	C211.007950,465.950684 231.145554,465.963806 251.282623,466.028931 
	C255.260757,466.041809 257.046326,464.388367 257.027771,460.360626 
	C256.955750,444.717102 256.971954,429.072998 257.016724,413.429291 
	C257.027466,409.673431 255.328491,407.970337 251.571899,407.984711 
	C230.438538,408.065582 209.304962,408.091095 187.349304,408.464233 
M49.500660,336.998779 
	C64.637955,336.998535 79.775681,336.935669 94.912270,337.039124 
	C99.045586,337.067383 101.062088,335.585815 101.035057,331.233521 
	C100.938942,315.764130 100.952248,300.293579 101.029366,284.823944 
	C101.048866,280.913116 99.555679,278.966339 95.469063,278.977478 
	C74.842567,279.033722 54.215740,279.035339 33.589264,278.975555 
	C29.535906,278.963806 27.951958,280.818390 27.971369,284.765656 
	C28.047443,300.235291 28.062033,315.705841 27.963776,331.175232 
	C27.936390,335.487000 29.853251,337.162903 34.030273,337.032898 
	C38.849579,336.882996 43.677139,336.998535 49.500660,336.998779 
M155.499832,336.998779 
	C161.155548,336.998749 166.817581,336.833557 172.464996,337.050201 
	C177.104233,337.228180 179.111328,335.496735 179.059067,330.681763 
	C178.894821,315.546204 178.894150,300.406647 179.059052,285.271118 
	C179.111954,280.415375 177.011368,278.911224 172.419434,278.943176 
	C152.791763,279.079620 133.162582,278.986816 113.533997,279.010406 
	C107.886337,279.017212 107.015381,279.941925 107.007507,285.815674 
	C106.987892,300.453949 106.993385,315.092255 107.004478,329.730560 
	C107.009438,336.272186 107.702293,336.987457 114.078308,336.994324 
	C127.552170,337.008850 141.026062,336.998779 155.499832,336.998779 
M185.473221,281.331085 
	C185.322647,281.972626 185.041763,282.613953 185.040543,283.255768 
	C185.010208,299.398956 185.034790,315.542236 184.985794,331.685303 
	C184.973038,335.890778 187.259293,337.044495 191.042908,337.031311 
	C211.013748,336.961884 230.985306,336.933075 250.955704,337.048187 
	C255.546356,337.074615 257.086243,335.069611 257.048798,330.687592 
	C256.919403,315.543976 256.894104,300.397400 257.059479,285.254517 
	C257.112701,280.379700 254.976395,278.911438 250.398163,278.943054 
	C230.760880,279.078705 211.121887,278.958099 191.484329,279.071503 
	C189.651657,279.082062 187.824707,280.080719 185.473221,281.331085 
M256.998779,244.500000 
	C256.998749,236.848160 256.848450,229.192261 257.054718,221.545990 
	C257.179596,216.918137 255.517029,214.906174 250.693375,214.941254 
	C230.899475,215.085190 211.103561,215.064957 191.309250,214.952042 
	C186.929779,214.927078 184.912537,216.454865 184.951843,221.043030 
	C185.082947,236.345566 185.063904,251.650345 184.960449,266.953308 
	C184.932312,271.114807 186.482773,273.054474 190.806290,273.036133 
	C210.933563,272.950684 231.061584,272.950623 251.188858,273.036163 
	C255.508850,273.054535 257.120636,271.125122 257.037811,266.957611 
	C256.895691,259.807648 256.998688,252.652802 256.998779,244.500000 
M107.000610,431.500183 
	C107.000656,440.815582 107.136665,450.133820 106.943092,459.445190 
	C106.847092,464.063538 108.464905,466.094238 113.296837,466.059082 
	C133.090988,465.914978 152.887146,465.935577 172.681702,466.048187 
	C177.053864,466.073059 179.087814,464.561768 179.048538,459.966614 
	C178.917709,444.663910 178.936691,429.358917 179.040024,414.055786 
	C179.068085,409.900818 177.533569,407.945435 173.203400,407.963776 
	C153.075867,408.049011 132.947586,408.049255 112.820068,407.963287 
	C108.506058,407.944855 106.850906,409.858673 106.964378,414.033051 
	C107.113480,419.518402 107.000748,425.010895 107.000610,431.500183 
M41.532173,408.001221 
	C39.535961,408.001221 37.539742,407.997589 35.543537,408.001892 
	C28.645691,408.016754 28.009918,408.617737 28.005005,415.304901 
	C27.994249,429.943756 27.987942,444.582642 28.008486,459.221466 
	C28.016697,465.071930 28.887363,465.983124 34.572742,465.989594 
	C54.534794,466.012299 74.496902,466.012756 94.458954,465.989227 
	C100.113518,465.982544 100.984016,465.059937 100.991806,459.189789 
	C101.011444,444.384613 101.012581,429.579346 100.991325,414.774170 
	C100.982742,408.793640 100.154129,408.010620 93.923882,408.005859 
	C76.789772,407.992706 59.655651,408.001282 41.532173,408.001221 
M162.491669,272.998779 
	C165.818542,272.998657 169.154984,272.838623 172.469986,273.036896 
	C177.113052,273.314545 179.110748,271.485565 179.058517,266.675323 
	C178.894241,251.539932 178.893463,236.400452 179.058456,221.265060 
	C179.111450,216.403625 176.998642,214.912109 172.412354,214.943909 
	C152.784851,215.080032 133.155838,214.987259 113.527412,215.011124 
	C107.886314,215.017990 107.015869,215.944977 107.008072,221.823334 
	C106.988670,236.461456 106.993958,251.099640 107.005142,265.737793 
	C107.010139,272.271820 107.704300,272.988495 114.086571,272.994080 
	C129.889114,273.007935 145.691681,272.998718 162.491669,272.998779 
z"/>
<path fill="#D3D3D3" opacity="1.000000" stroke="none" 
	d="
M14.049526,542.389282 
	C126.027679,542.030029 238.039032,542.021362 350.517090,542.025635 
	C350.008759,545.677612 347.698517,546.953979 343.949219,546.591003 
	C341.364319,546.340759 338.707184,546.978943 336.082275,546.979553 
	C233.762238,547.003662 131.442215,547.001343 29.122175,546.994141 
	C25.849661,546.993896 22.470961,547.382141 19.343531,546.684692 
	C17.393684,546.249817 15.823366,544.112976 14.049526,542.389282 
z"/>
<path fill="#8D8D8D" opacity="1.000000" stroke="none" 
	d="
M23.948204,26.787546 
	C23.947693,23.162704 23.947693,20.011208 23.947693,16.265450 
	C22.816292,16.154312 21.281801,16.003580 19.988899,15.876579 
	C18.674494,21.753225 17.477894,27.318853 16.054283,32.825794 
	C15.983720,33.098759 13.937160,32.860901 13.251082,32.860901 
	C14.484514,27.420979 15.694029,22.086544 17.242027,15.259263 
	C14.018783,16.542906 12.362205,17.202631 10.075751,18.113201 
	C11.803664,14.390797 13.901327,12.174289 17.781328,12.174503 
	C22.738354,12.174778 27.695377,12.174570 32.637741,12.174570 
	C34.018665,17.682182 29.369164,14.966002 27.308531,16.971020 
	C27.131701,19.693357 26.690598,23.140244 26.738510,26.580315 
	C26.800497,31.030993 28.111792,31.584345 32.496021,29.158100 
	C32.361050,35.026855 28.109432,32.351631 24.972082,33.230244 
	C24.593954,31.024601 24.271336,29.142746 23.948204,26.787546 
z"/>
<path fill="#746B53" opacity="1.000000" stroke="none" 
	d="
M234.928329,18.225624 
	C235.009552,20.091656 235.009552,21.563654 235.009552,23.698421 
	C236.595566,22.585484 237.696686,21.812817 238.797791,21.040152 
	C238.961044,21.183180 239.124313,21.326206 239.287582,21.469234 
	C238.626541,22.469086 237.965500,23.468935 237.253525,24.545822 
	C238.042862,25.784714 238.835205,27.028309 239.627533,28.271906 
	C239.491119,28.455160 239.354691,28.638414 239.218277,28.821669 
	C238.062576,28.024256 236.906876,27.226843 235.723175,26.410109 
	C235.175751,27.268747 234.651962,28.090311 234.033798,29.059904 
	C233.550919,28.527443 233.174713,28.306751 233.169373,28.077423 
	C233.096191,24.933733 233.026871,21.787489 233.118607,18.646606 
	C233.127014,18.358353 234.244583,18.102493 234.928329,18.225624 
z"/>
<path fill="#746B53" opacity="1.000000" stroke="none" 
	d="
M256.345825,28.045380 
	C253.357513,29.974915 250.900543,29.038076 250.374115,25.634588 
	C250.163406,24.272337 251.789688,21.810703 253.140976,21.280951 
	C254.215286,20.859785 256.143311,22.616299 257.692322,23.405994 
	C257.504852,23.872303 257.317383,24.338612 257.129913,24.804920 
	C255.533691,24.978689 253.937469,25.152460 252.341248,25.326231 
	C252.228073,25.730021 252.114914,26.133810 252.001755,26.537600 
	C253.387131,26.956797 254.772522,27.375994 256.345825,28.045380 
z"/>
<path fill="#221C1A" opacity="1.000000" stroke="none" 
	d="
M349.963257,23.969881 
	C349.646301,23.208454 349.594086,22.540352 349.541870,21.872246 
	C350.141296,22.192633 350.740692,22.513021 351.340088,22.833405 
	C350.969391,23.243334 350.598724,23.653269 349.963257,23.969881 
z"/>
<path fill="#221C1A" opacity="1.000000" stroke="none" 
	d="
M345.290527,21.551285 
	C345.827942,21.776316 346.121307,22.091347 346.414673,22.406380 
	C346.049225,22.575281 345.683807,22.744181 345.318359,22.913078 
	C345.227722,22.489145 345.137085,22.065214 345.290527,21.551285 
z"/>
<path fill="#A9ABAD" opacity="1.000000" stroke="none" 
	d="
M77.057755,476.615753 
	C78.032860,472.494751 80.766586,471.966370 84.038559,471.980408 
	C98.864761,472.044006 113.691391,472.008179 128.517868,472.008179 
	C178.494766,472.008179 228.471649,472.006897 278.448547,472.009583 
	C286.052155,472.010010 286.988434,472.961060 286.990662,480.656708 
	C286.994690,494.650238 287.009399,508.643829 286.983521,522.637329 
	C286.972473,528.601501 285.605713,529.982483 279.653351,529.983704 
	C214.516800,529.996582 149.380249,529.997253 84.243706,529.982666 
	C78.349190,529.981323 77.022926,528.594055 77.015739,522.534363 
	C76.997757,507.374817 77.017776,492.215210 77.057755,476.615753 
z"/>
<path fill="#A9ABAD" opacity="1.000000" stroke="none" 
	d="
M299.000000,343.009460 
	C309.319122,343.009491 319.138367,342.979797 328.957306,343.020996 
	C334.559509,343.044495 335.968597,344.474609 335.980194,350.157013 
	C336.010681,365.135284 336.016205,380.113678 335.976776,395.091919 
	C335.962708,400.439240 334.476593,401.964630 329.207703,401.974915 
	C309.403076,402.013580 289.598358,402.013519 269.793732,401.974915 
	C264.523926,401.964630 263.037323,400.439636 263.023224,395.093353 
	C262.983734,380.115112 262.989319,365.136688 263.019775,350.158417 
	C263.031342,344.475433 264.440491,343.045532 270.041260,343.020935 
	C279.527344,342.979248 289.013733,343.009460 299.000000,343.009460 
z"/>
<path fill="#DCDCDC" opacity="1.000000" stroke="none" 
	d="
M64.000000,343.000183 
	C74.481064,343.000427 84.464600,343.131378 94.442093,342.942810 
	C99.057777,342.855591 101.110474,344.458588 101.059570,349.294189 
	C100.896736,364.763123 100.896744,380.235901 101.059563,395.704834 
	C101.110451,400.539581 99.056580,402.089111 94.443771,402.057556 
	C74.482574,401.920990 54.519375,401.921082 34.558178,402.057526 
	C29.947090,402.089020 27.889534,400.543243 27.940458,395.706757 
	C28.103329,380.237823 28.103287,364.765015 27.940456,349.296082 
	C27.889570,344.462067 29.938597,342.851532 34.556065,342.942993 
	C44.200634,343.134064 53.851639,343.000427 64.000000,343.000183 
M63.123009,368.360046 
	C63.830143,368.777252 65.122566,369.159637 65.149788,369.617279 
	C65.331879,372.679108 65.244400,375.756927 65.244400,378.829529 
	C65.794563,378.809296 66.344727,378.789062 66.894890,378.768829 
	C66.894890,373.989471 66.894890,369.210114 66.894890,363.359802 
	C64.346153,365.404877 62.525810,366.865479 60.705471,368.326080 
	C60.877228,368.558716 61.048985,368.791321 61.220737,369.023926 
	C61.682922,368.949982 62.145103,368.876038 63.123009,368.360046 
z"/>
<path fill="#DBDCDB" opacity="1.000000" stroke="none" 
	d="
M107.015854,397.496307 
	C107.003540,381.235718 106.986641,365.426727 107.009445,349.617828 
	C107.017700,343.892487 107.915535,343.013885 113.736389,343.008331 
	C133.372742,342.989624 153.009735,343.085297 172.645050,342.941101 
	C177.431885,342.905945 179.106812,344.836639 179.058395,349.501068 
	C178.899521,364.809113 178.902023,380.120850 179.057480,395.428955 
	C179.104233,400.034119 177.561386,402.094238 172.715027,402.058868 
	C152.913300,401.914398 133.109863,401.976898 113.307182,402.021362 
	C110.233185,402.028259 107.585350,401.678070 107.015854,397.496307 
z"/>
<path fill="#DBDBDB" opacity="1.000000" stroke="none" 
	d="
M212.000000,343.001221 
	C224.975769,343.001282 237.451538,342.990845 249.927292,343.005798 
	C256.154236,343.013275 256.983124,343.794281 256.991486,349.777130 
	C257.012634,364.914368 257.011597,380.051666 256.991974,395.188904 
	C256.984375,401.059509 256.113220,401.982361 250.460281,401.989227 
	C230.831772,402.012970 211.202667,401.919983 191.575089,402.056580 
	C186.978378,402.088531 184.890320,400.572784 184.941498,395.722260 
	C185.104691,380.254059 185.104202,364.781921 184.941528,349.313690 
	C184.890823,344.494263 186.906693,342.799347 191.540451,342.947418 
	C198.187424,343.159790 204.846237,343.001373 212.000000,343.001221 
z"/>
<path fill="#A9ABAD" opacity="1.000000" stroke="none" 
	d="
M270.326416,336.991089 
	C265.003235,337.300232 262.928070,335.041870 262.966644,330.160828 
	C263.083618,315.345367 262.977753,300.528290 263.026154,285.712067 
	C263.043213,280.482025 264.572266,279.030151 269.990967,279.021423 
	C289.635101,278.989838 309.279358,278.990692 328.923492,279.020447 
	C334.557800,279.028992 335.967407,280.456848 335.980316,286.125885 
	C336.012817,300.442749 335.999969,314.759796 335.987244,329.076752 
	C335.981293,335.777954 334.806641,336.981445 328.222626,336.986206 
	C309.077850,337.000092 289.933044,336.991119 270.326416,336.991089 
z"/>
<path fill="#A9ABAD" opacity="1.000000" stroke="none" 
	d="
M279.016724,465.991760 
	C275.358093,465.991241 272.195709,465.971588 269.033661,465.995026 
	C264.876068,466.025818 262.987640,463.942078 262.996490,459.832458 
	C263.029022,444.687073 263.044525,429.541473 262.986786,414.396240 
	C262.970184,410.038971 264.900513,407.980011 269.304291,407.989746 
	C289.442657,408.034149 309.581238,408.033325 329.719604,407.990479 
	C334.135803,407.981079 336.031067,410.075073 336.013855,414.420135 
	C335.954529,429.398895 336.024506,444.378204 335.973206,459.357025 
	C335.955444,464.545166 334.411285,465.969666 328.943848,465.980255 
	C312.466980,466.012146 295.990051,465.991791 279.016724,465.991760 
z"/>
<path fill="#A9ABAD" opacity="1.000000" stroke="none" 
	d="
M299.000000,215.009491 
	C309.319000,215.009506 319.138153,214.979843 328.956970,215.021011 
	C334.559418,215.044510 335.968231,216.474457 335.980194,222.156540 
	C336.011047,236.801773 336.016602,251.447189 335.976776,266.092377 
	C335.962250,271.439301 334.476410,272.964630 329.207367,272.974915 
	C309.402985,273.013580 289.598480,273.013550 269.794098,272.974945 
	C264.524170,272.964691 263.037781,271.439667 263.023224,266.093842 
	C262.983368,251.448654 262.988983,236.803223 263.019775,222.157990 
	C263.031708,216.475281 264.440582,215.045517 270.041595,215.020950 
	C279.527557,214.979324 289.013855,215.009506 299.000000,215.009491 
z"/>
<path fill="#DCDCDC" opacity="1.000000" stroke="none" 
	d="
M73.999992,215.000610 
	C81.320274,215.000732 88.142784,215.105804 94.960045,214.962112 
	C99.129143,214.874222 101.064339,216.494034 101.037025,220.813187 
	C100.939209,236.282990 100.939842,251.754150 101.036270,267.223969 
	C101.063362,271.568939 99.063805,273.057770 94.923515,273.039429 
	C74.629379,272.949738 54.334274,272.934174 34.040382,273.048035 
	C29.451057,273.073761 27.913879,271.067017 27.951202,266.688507 
	C28.080227,251.551880 28.105286,236.412369 27.940462,221.276428 
	C27.887636,216.425400 29.976492,214.882812 34.575138,214.942184 
	C47.548180,215.109665 60.524796,215.000656 73.999992,215.000610 
M68.751755,236.523605 
	C65.814369,236.376785 62.876980,236.229965 59.939590,236.083160 
	C59.908585,236.598770 59.877583,237.114395 59.846577,237.630005 
	C62.077251,237.914871 64.307922,238.199753 66.559845,238.487335 
	C65.975700,240.447449 65.514481,241.995087 65.053261,243.542725 
	C65.545280,243.703979 66.037308,243.865234 66.529335,244.026505 
	C67.364510,241.785843 68.199677,239.545181 68.751755,236.523605 
z"/>
<path fill="#DCDCDC" opacity="1.000000" stroke="none" 
	d="
M187.760376,408.299866 
	C209.304962,408.091095 230.438538,408.065582 251.571899,407.984711 
	C255.328491,407.970337 257.027466,409.673431 257.016724,413.429291 
	C256.971954,429.072998 256.955750,444.717102 257.027771,460.360626 
	C257.046326,464.388367 255.260757,466.041809 251.282623,466.028931 
	C231.145554,465.963806 211.007950,465.950684 190.871063,466.038330 
	C186.588165,466.056976 184.931641,464.221100 184.959946,460.014771 
	C185.062973,444.704498 184.919876,429.392090 185.104248,414.083344 
	C185.126923,412.201569 186.566406,410.336853 187.760376,408.299866 
z"/>
<path fill="#DBDBDB" opacity="1.000000" stroke="none" 
	d="
M49.000885,336.998779 
	C43.677139,336.998535 38.849579,336.882996 34.030273,337.032898 
	C29.853251,337.162903 27.936390,335.487000 27.963776,331.175232 
	C28.062033,315.705841 28.047443,300.235291 27.971369,284.765656 
	C27.951958,280.818390 29.535906,278.963806 33.589264,278.975555 
	C54.215740,279.035339 74.842567,279.033722 95.469063,278.977478 
	C99.555679,278.966339 101.048866,280.913116 101.029366,284.823944 
	C100.952248,300.293579 100.938942,315.764130 101.035057,331.233521 
	C101.062088,335.585815 99.045586,337.067383 94.912270,337.039124 
	C79.775681,336.935669 64.637955,336.998535 49.000885,336.998779 
M63.100662,305.082031 
	C62.350586,306.044830 61.600506,307.007629 60.124992,308.072540 
	C59.373463,309.029053 58.621933,309.985565 57.326050,311.634888 
	C60.281567,311.889648 62.834576,311.349243 63.691002,312.314331 
	C67.533287,316.644257 69.083969,313.648254 70.459259,311.380493 
	C69.696991,307.708069 69.087753,304.772919 68.465042,301.772858 
	C63.051868,300.999542 62.410721,301.426422 63.100662,305.082031 
z"/>
<path fill="#DBDCDB" opacity="1.000000" stroke="none" 
	d="
M154.999878,336.998779 
	C141.026062,336.998779 127.552170,337.008850 114.078308,336.994324 
	C107.702293,336.987457 107.009438,336.272186 107.004478,329.730560 
	C106.993385,315.092255 106.987892,300.453949 107.007507,285.815674 
	C107.015381,279.941925 107.886337,279.017212 113.533997,279.010406 
	C133.162582,278.986816 152.791763,279.079620 172.419434,278.943176 
	C177.011368,278.911224 179.111954,280.415375 179.059052,285.271118 
	C178.894150,300.406647 178.894821,315.546204 179.059067,330.681763 
	C179.111328,335.496735 177.104233,337.228180 172.464996,337.050201 
	C166.817581,336.833557 161.155548,336.998749 154.999878,336.998779 
M139.289017,300.474579 
	C138.903580,302.924652 138.518143,305.374756 138.213409,307.311890 
	C141.702103,307.710144 144.363052,308.013916 147.024017,308.317657 
	C147.160355,308.011108 147.296707,307.704590 147.433060,307.398041 
	C145.153687,306.605957 142.874313,305.813904 140.378189,304.946503 
	C139.861526,299.550507 145.385803,303.677490 147.534012,300.169281 
	C144.621674,300.169281 142.349457,300.169281 139.289017,300.474579 
z"/>
<path fill="#DCDCDC" opacity="1.000000" stroke="none" 
	d="
M185.734161,280.975830 
	C187.824707,280.080719 189.651657,279.082062 191.484329,279.071503 
	C211.121887,278.958099 230.760880,279.078705 250.398163,278.943054 
	C254.976395,278.911438 257.112701,280.379700 257.059479,285.254517 
	C256.894104,300.397400 256.919403,315.543976 257.048798,330.687592 
	C257.086243,335.069611 255.546356,337.074615 250.955704,337.048187 
	C230.985306,336.933075 211.013748,336.961884 191.042908,337.031311 
	C187.259293,337.044495 184.973038,335.890778 184.985794,331.685303 
	C185.034790,315.542236 185.010208,299.398956 185.040543,283.255768 
	C185.041763,282.613953 185.322647,281.972626 185.734161,280.975830 
M219.298828,307.456421 
	C220.998260,307.954163 222.697693,308.451904 224.397110,308.949646 
	C223.879639,310.563843 223.362167,312.178040 222.844696,313.792236 
	C224.307083,313.429962 225.694489,312.476257 225.994217,311.255524 
	C227.323120,305.843140 222.167435,305.716644 219.432510,302.992523 
	C218.105560,305.306610 217.048615,307.149811 215.456268,309.422150 
	C216.384445,311.163940 217.312622,312.905701 218.240784,314.647491 
	C218.497055,312.971100 218.776932,311.297729 218.994522,309.616333 
	C219.055771,309.143066 218.934280,308.646149 219.298828,307.456421 
z"/>
<path fill="#DBDCDB" opacity="1.000000" stroke="none" 
	d="
M256.998779,245.000000 
	C256.998688,252.652802 256.895691,259.807648 257.037811,266.957611 
	C257.120636,271.125122 255.508850,273.054535 251.188858,273.036163 
	C231.061584,272.950623 210.933563,272.950684 190.806290,273.036133 
	C186.482773,273.054474 184.932312,271.114807 184.960449,266.953308 
	C185.063904,251.650345 185.082947,236.345566 184.951843,221.043030 
	C184.912537,216.454865 186.929779,214.927078 191.309250,214.952042 
	C211.103561,215.064957 230.899475,215.085190 250.693375,214.941254 
	C255.517029,214.906174 257.179596,216.918137 257.054718,221.545990 
	C256.848450,229.192261 256.998749,236.848160 256.998779,245.000000 
M224.561920,246.781387 
	C228.552124,240.370178 227.836578,236.936371 221.527313,236.565903 
	C222.692856,238.375031 223.564331,239.727722 224.424850,241.063385 
	C222.863480,243.940735 219.652466,246.284927 220.900650,250.969894 
	C222.401642,249.277847 223.261780,248.308212 224.561920,246.781387 
M219.179550,242.140717 
	C219.259216,240.335434 219.338882,238.530151 219.418549,236.724869 
	C218.936844,236.509811 218.455154,236.294739 217.973450,236.079681 
	C216.993729,237.647797 215.095825,239.322433 215.262314,240.757568 
	C215.479721,242.631561 217.331512,244.315933 218.480103,246.081894 
	C218.899429,245.864487 219.318756,245.647095 219.738098,245.429688 
	C219.637146,244.555908 219.536209,243.682129 219.179550,242.140717 
z"/>
<path fill="#DCDCDC" opacity="1.000000" stroke="none" 
	d="
M107.000610,431.000244 
	C107.000748,425.010895 107.113480,419.518402 106.964378,414.033051 
	C106.850906,409.858673 108.506058,407.944855 112.820068,407.963287 
	C132.947586,408.049255 153.075867,408.049011 173.203400,407.963776 
	C177.533569,407.945435 179.068085,409.900818 179.040024,414.055786 
	C178.936691,429.358917 178.917709,444.663910 179.048538,459.966614 
	C179.087814,464.561768 177.053864,466.073059 172.681702,466.048187 
	C152.887146,465.935577 133.090988,465.914978 113.296837,466.059082 
	C108.464905,466.094238 106.847092,464.063538 106.943092,459.445190 
	C107.136665,450.133820 107.000656,440.815582 107.000610,431.000244 
M139.871231,437.253845 
	C139.956253,436.145721 140.041275,435.037598 140.637680,433.545502 
	C140.646194,432.177307 140.654709,430.809113 140.663239,429.440918 
	C139.843079,430.125488 139.022903,430.810089 138.424149,431.585632 
	C138.424149,431.585632 138.425522,431.824982 137.732376,432.276917 
	C137.598587,433.052917 137.464798,433.828918 137.775635,435.237732 
	C137.812195,436.230377 137.915146,437.225830 137.873398,438.215179 
	C137.723373,441.768433 139.085190,444.025024 142.920731,444.086761 
	C146.741867,444.148315 148.207855,442.045898 148.107635,438.405975 
	C148.072845,437.142578 148.471115,435.867310 148.848785,433.824554 
	C147.992340,432.333191 147.162338,430.824280 146.213730,429.394073 
	C146.156784,429.308228 144.640839,429.977478 144.666626,430.081512 
	C144.991425,431.392059 145.475113,432.663177 146.159409,434.800690 
	C146.161102,436.130035 146.320969,437.482056 146.133972,438.784302 
	C145.631241,442.285187 144.056976,443.666534 140.936356,440.469208 
	C140.652695,439.668365 140.369034,438.867493 139.871231,437.253845 
z"/>
<path fill="#DBDBDB" opacity="1.000000" stroke="none" 
	d="
M42.026855,408.001221 
	C59.655651,408.001282 76.789772,407.992706 93.923882,408.005859 
	C100.154129,408.010620 100.982742,408.793640 100.991325,414.774170 
	C101.012581,429.579346 101.011444,444.384613 100.991806,459.189789 
	C100.984016,465.059937 100.113518,465.982544 94.458954,465.989227 
	C74.496902,466.012756 54.534794,466.012299 34.572742,465.989594 
	C28.887363,465.983124 28.016697,465.071930 28.008486,459.221466 
	C27.987942,444.582642 27.994249,429.943756 28.005005,415.304901 
	C28.009918,408.617737 28.645691,408.016754 35.543537,408.001892 
	C37.539742,407.997589 39.535961,408.001221 42.026855,408.001221 
M72.888397,430.728638 
	C72.805099,430.680573 72.721809,430.632507 72.638512,430.584473 
	C72.757202,430.724365 72.875893,430.864288 73.080475,431.646301 
	C73.454285,435.579163 73.828102,439.512054 74.214867,443.581146 
	C76.852509,441.248871 78.295822,433.533447 76.383385,431.381409 
	C75.822350,430.750031 74.160957,431.096527 72.888397,430.728638 
M59.798534,442.983856 
	C64.677345,442.758240 63.821918,438.913727 63.903622,436.018280 
	C63.980125,433.307190 63.660828,430.335236 60.114098,430.170624 
	C59.728584,434.629181 59.366497,438.816833 58.226982,442.994019 
	C52.603947,439.618713 55.708515,434.867249 55.751251,430.005585 
	C54.208401,430.847015 52.669037,431.978821 52.289551,433.416779 
	C51.776272,435.361755 51.746597,437.652191 52.272091,439.587341 
	C52.725513,441.257080 54.017025,442.931793 55.402081,444.005859 
	C55.987106,444.459534 57.761951,443.378845 59.798534,442.983856 
M66.939400,443.247955 
	C67.837364,442.917023 69.515587,442.584381 69.514870,442.255371 
	C69.505882,438.107788 69.254692,433.960693 69.061005,429.813812 
	C64.311607,432.729584 63.596447,436.217865 66.939400,443.247955 
z"/>
<path fill="#DBDBDB" opacity="1.000000" stroke="none" 
	d="
M161.992950,272.998779 
	C145.691681,272.998718 129.889114,273.007935 114.086571,272.994080 
	C107.704300,272.988495 107.010139,272.271820 107.005142,265.737793 
	C106.993958,251.099640 106.988670,236.461456 107.008072,221.823334 
	C107.015869,215.944977 107.886314,215.017990 113.527412,215.011124 
	C133.155838,214.987259 152.784851,215.080032 172.412354,214.943909 
	C176.998642,214.912109 179.111450,216.403625 179.058456,221.265060 
	C178.893463,236.400452 178.894241,251.539932 179.058517,266.675323 
	C179.110748,271.485565 177.113052,273.314545 172.469986,273.036896 
	C169.154984,272.838623 165.818542,272.998657 161.992950,272.998779 
M147.994568,240.523239 
	C147.216888,239.136215 146.439194,237.749191 145.468643,236.018188 
	C144.084778,238.200302 143.197723,239.599060 142.016266,241.462006 
	C140.652145,239.556549 139.777481,238.334808 138.034744,235.900497 
	C137.437927,240.819946 136.953537,244.422318 136.623825,248.038788 
	C136.583862,248.477051 137.369278,248.999313 137.787354,249.469162 
	C140.793991,252.848160 144.336258,251.521606 147.313339,249.917023 
	C150.386154,248.260864 148.563019,245.798676 147.325653,243.596909 
	C147.037720,243.084549 147.663055,242.058945 147.994568,240.523239 
z"/>
<path fill="#EEEFEE" opacity="1.000000" stroke="none" 
	d="
M145.064514,157.002563 
	C145.367294,157.094757 145.611649,157.268906 145.898712,158.206314 
	C145.999023,172.946594 145.998230,187.005554 145.997437,201.064514 
	C145.905243,201.367294 145.731094,201.611649 144.793686,201.898712 
	C126.053413,201.999023 107.994453,201.998230 89.935501,201.997437 
	C89.632759,201.905212 89.388405,201.731064 89.101288,200.793671 
	C89.000961,186.053406 89.001762,171.994446 89.002571,157.935486 
	C89.094803,157.632736 89.268959,157.388382 90.206329,157.101303 
	C108.946594,157.000977 127.005554,157.001770 145.064514,157.002563 
z"/>
<path fill="#EEEEEE" opacity="1.000000" stroke="none" 
	d="
M339.986328,199.969269 
	C339.172089,200.892792 338.357849,201.816315 336.967133,202.566711 
	C319.497070,202.280945 302.603546,202.159256 285.709778,202.095215 
	C285.151184,202.093094 284.590393,202.676071 284.030609,202.986328 
	C283.107117,202.172058 282.183624,201.357788 281.433289,199.967072 
	C281.719055,186.496124 281.843445,173.601669 281.904205,160.706909 
	C281.906860,160.149582 281.323853,159.589508 281.013672,159.030731 
	C281.827911,158.107208 282.642151,157.183685 284.032867,156.433273 
	C301.502930,156.719055 318.396454,156.840729 335.290222,156.904755 
	C335.848785,156.906860 336.409607,156.323914 336.969391,156.013672 
	C337.892883,156.827957 338.816345,157.642227 339.566711,159.032928 
	C339.280975,172.503876 339.156555,185.398331 339.095795,198.293091 
	C339.093170,198.850403 339.676147,199.410477 339.986328,199.969269 
M306.510529,174.072372 
	C305.078400,175.407745 303.646240,176.743118 302.214081,178.078491 
	C303.315063,176.956696 304.416046,175.834885 305.516998,174.713074 
	C306.223511,176.594345 306.930023,178.475616 307.636536,180.356873 
	C307.115662,180.850769 306.594757,181.344666 306.073883,181.838577 
	C307.413269,180.438568 308.752625,179.038574 309.625702,178.125961 
	C308.710510,176.875488 307.895569,175.762009 306.510529,174.072372 
z"/>
<path fill="#EDEDED" opacity="1.000000" stroke="none" 
	d="
M209.057617,157.000946 
	C209.364090,157.092606 209.611130,157.267990 209.900177,158.210022 
	C210.000793,172.947815 209.999924,187.002716 209.999054,201.057617 
	C209.907394,201.364090 209.732010,201.611130 208.789978,201.900177 
	C190.385513,202.000793 172.663956,201.999924 154.942383,201.999054 
	C154.635910,201.907394 154.388870,201.732010 154.099823,200.789978 
	C153.999207,186.052185 154.000076,171.997284 154.000946,157.942383 
	C154.092606,157.635910 154.267990,157.388870 155.210022,157.099823 
	C173.614487,156.999207 191.336044,157.000076 209.057617,157.000946 
z"/>
<path fill="#EEEEEE" opacity="1.000000" stroke="none" 
	d="
M274.997803,201.062805 
	C274.905731,201.366470 274.731293,201.611496 273.792786,201.899109 
	C255.053146,201.999496 236.995163,201.998672 218.937195,201.997864 
	C218.633484,201.905807 218.388443,201.731339 218.100891,200.792786 
	C218.000504,186.053116 218.001312,171.995148 218.002136,157.937195 
	C218.094193,157.633484 218.268661,157.388443 219.207214,157.100891 
	C237.946915,157.000504 256.004883,157.001328 274.062866,157.002136 
	C274.366547,157.094223 274.611542,157.268692 274.899048,158.207245 
	C274.999451,172.946884 274.998627,187.004852 274.997803,201.062805 
M246.520325,176.933472 
	C245.927689,177.682465 245.335052,178.431458 244.995026,178.861191 
	C243.323853,177.693802 241.884308,176.688217 240.444763,175.682632 
	C240.224152,175.987061 240.003525,176.291489 239.782898,176.595917 
	C240.744186,178.271164 241.705490,179.946426 242.534164,181.390579 
	C241.502930,183.367813 240.651703,184.999908 239.800476,186.632019 
	C240.124542,186.896011 240.448624,187.160004 240.772690,187.423981 
	C242.075668,186.255356 243.378647,185.086731 244.432877,184.141205 
	C245.885269,185.196228 247.352188,186.261795 249.706802,187.972198 
	C248.821594,183.734512 244.176666,180.934753 249.449158,178.191650 
	C248.623764,177.570786 247.798386,176.949936 246.520325,176.933472 
z"/>
<path fill="#EEEEEE" opacity="1.000000" stroke="none" 
	d="
M81.997849,201.062805 
	C81.905769,201.366486 81.731308,201.611511 80.792763,201.899109 
	C62.053108,201.999496 43.995163,201.998688 25.937218,201.997864 
	C25.633518,201.905807 25.388483,201.731339 25.100891,200.792786 
	C25.000494,186.053116 25.001320,171.995148 25.002146,157.937195 
	C25.094223,157.633499 25.268681,157.388474 26.207233,157.100891 
	C44.946892,157.000504 63.004837,157.001312 81.062782,157.002136 
	C81.366470,157.094223 81.611496,157.268677 81.899109,158.207214 
	C81.999504,172.946884 81.998672,187.004852 81.997849,201.062805 
M52.148083,173.173325 
	C51.190014,173.572647 50.231941,173.971970 48.957993,174.502945 
	C48.447723,174.064880 47.236534,173.025070 46.025341,171.985260 
	C45.514683,172.226913 45.004025,172.468567 44.493366,172.710220 
	C48.340588,176.051270 48.153446,179.684494 45.037170,183.529846 
	C45.539581,183.585739 46.041992,183.641632 46.544399,183.697525 
	C47.555855,182.735413 48.567310,181.773300 49.067490,181.297531 
	C50.208939,182.139023 51.285530,182.932709 53.240547,184.373978 
	C53.013199,179.880157 52.856087,176.774704 52.148083,173.173325 
M40.637562,173.590820 
	C40.443771,176.769470 40.249981,179.948120 40.056190,183.126770 
	C40.751789,183.121231 41.447392,183.115707 42.142994,183.110168 
	C41.903439,179.945404 41.663883,176.780624 40.637562,173.590820 
z"/>
<path fill="#DCDCDC" opacity="1.000000" stroke="none" 
	d="
M273.758179,156.707458 
	C256.004883,157.001328 237.946915,157.000504 219.413055,157.000916 
	C219.501770,156.689835 220.067383,156.102936 220.630753,156.105072 
	C238.238480,156.172287 255.845978,156.296921 273.758179,156.707458 
z"/>
<path fill="#DCDCDC" opacity="1.000000" stroke="none" 
	d="
M26.241854,202.292572 
	C43.995163,201.998688 62.053108,201.999496 80.586914,201.999084 
	C80.498207,202.310165 79.932579,202.897064 79.369202,202.894913 
	C61.761494,202.827728 44.154011,202.703094 26.241854,202.292572 
z"/>
<path fill="#DCDCDC" opacity="1.000000" stroke="none" 
	d="
M90.240433,202.292084 
	C107.994453,201.998230 126.053413,201.999023 144.588440,201.998627 
	C144.499863,202.309814 143.934158,202.896866 143.370712,202.894730 
	C125.762131,202.827408 108.153763,202.702682 90.240433,202.292084 
z"/>
<path fill="#DCDCDC" opacity="1.000000" stroke="none" 
	d="
M144.759583,156.707916 
	C127.005554,157.001770 108.946594,157.000977 90.411568,157.001373 
	C90.500153,156.690186 91.065857,156.103165 91.629303,156.105301 
	C109.237885,156.172592 126.846252,156.297333 144.759583,156.707916 
z"/>
<path fill="#DCDCDC" opacity="1.000000" stroke="none" 
	d="
M219.241821,202.292572 
	C236.995163,201.998672 255.053146,201.999496 273.586975,201.999115 
	C273.498291,202.310196 272.932678,202.897110 272.369263,202.894958 
	C254.761536,202.827713 237.154007,202.703094 219.241821,202.292572 
z"/>
<path fill="#DCDCDC" opacity="1.000000" stroke="none" 
	d="
M80.758148,156.707428 
	C63.004837,157.001312 44.946892,157.000504 26.413082,157.000916 
	C26.501797,156.689835 27.067419,156.102951 27.630796,156.105087 
	C45.238503,156.172287 62.845993,156.296906 80.758148,156.707428 
z"/>
<path fill="#DCDCDC" opacity="1.000000" stroke="none" 
	d="
M208.753906,156.706055 
	C191.336044,157.000076 173.614487,156.999207 155.417648,156.999634 
	C155.506668,156.688812 156.072021,156.102234 156.635086,156.104416 
	C173.906921,156.171158 191.178528,156.295624 208.753906,156.706055 
z"/>
<path fill="#DCDCDC" opacity="1.000000" stroke="none" 
	d="
M155.246094,202.293945 
	C172.663956,201.999924 190.385513,202.000793 208.582352,202.000366 
	C208.493332,202.311172 207.927994,202.897766 207.364914,202.895584 
	C190.093079,202.828857 172.821472,202.704376 155.246094,202.293945 
z"/>
<path fill="#DCDCDC" opacity="1.000000" stroke="none" 
	d="
M336.503967,156.010284 
	C336.409607,156.323914 335.848785,156.906860 335.290222,156.904755 
	C318.396454,156.840729 301.502930,156.719055 284.320099,156.309967 
	C301.366730,156.011353 318.702637,156.009125 336.503967,156.010284 
z"/>
<path fill="#DCDCDC" opacity="1.000000" stroke="none" 
	d="
M284.496033,202.989700 
	C284.590393,202.676071 285.151184,202.093094 285.709778,202.095215 
	C302.603546,202.159256 319.497070,202.280945 336.679901,202.690033 
	C319.633270,202.988647 302.297363,202.990875 284.496033,202.989700 
z"/>
<path fill="#DCDCDC" opacity="1.000000" stroke="none" 
	d="
M275.292511,200.758163 
	C274.998627,187.004852 274.999451,172.946884 274.999023,158.413055 
	C275.310089,158.501373 275.897125,159.066864 275.894440,159.629562 
	C275.830200,173.237732 275.703033,186.845596 275.292511,200.758163 
z"/>
<path fill="#DCDCDC" opacity="1.000000" stroke="none" 
	d="
M24.707447,158.241837 
	C25.001320,171.995148 25.000494,186.053116 25.000908,200.586945 
	C24.689877,200.498611 24.102905,199.933121 24.105562,199.370407 
	C24.169779,185.762253 24.296944,172.154388 24.707447,158.241837 
z"/>
<path fill="#DCDCDC" opacity="1.000000" stroke="none" 
	d="
M82.292549,200.758163 
	C81.998672,187.004852 81.999504,172.946884 81.999092,158.413055 
	C82.310120,158.501389 82.897087,159.066895 82.894424,159.629608 
	C82.830208,173.237762 82.703049,186.845612 82.292549,200.758163 
z"/>
<path fill="#DCDCDC" opacity="1.000000" stroke="none" 
	d="
M88.707932,158.240417 
	C89.001762,171.994446 89.000961,186.053406 89.001358,200.588440 
	C88.690231,200.500229 88.103134,199.934647 88.105797,199.371841 
	C88.170105,185.762833 88.297379,172.154129 88.707932,158.240417 
z"/>
<path fill="#DCDCDC" opacity="1.000000" stroke="none" 
	d="
M146.292084,200.759583 
	C145.998230,187.005554 145.999023,172.946594 145.998627,158.411560 
	C146.309784,158.499771 146.896881,159.065338 146.894211,159.628143 
	C146.829895,173.237167 146.702637,186.845871 146.292084,200.759583 
z"/>
<path fill="#DCDCDC" opacity="1.000000" stroke="none" 
	d="
M153.706055,158.246094 
	C154.000076,171.997284 153.999207,186.052185 153.999634,200.582352 
	C153.688843,200.493713 153.102219,199.928513 153.104874,199.366089 
	C153.168808,185.760498 153.295654,172.155182 153.706055,158.246094 
z"/>
<path fill="#DCDCDC" opacity="1.000000" stroke="none" 
	d="
M210.293945,200.753906 
	C209.999924,187.002716 210.000793,172.947815 210.000366,158.417648 
	C210.311142,158.506287 210.897797,159.071487 210.895142,159.633911 
	C210.831207,173.239502 210.704346,186.844818 210.293945,200.753906 
z"/>
<path fill="#DCDCDC" opacity="1.000000" stroke="none" 
	d="
M217.707428,158.241821 
	C218.001312,171.995148 218.000504,186.053116 218.000916,200.586945 
	C217.689865,200.498611 217.102890,199.933121 217.105545,199.370407 
	C217.169754,185.762238 217.296921,172.154388 217.707428,158.241821 
z"/>
<path fill="#DCDCDC" opacity="1.000000" stroke="none" 
	d="
M339.989746,199.503845 
	C339.676147,199.410477 339.093170,198.850403 339.095795,198.293091 
	C339.156555,185.398331 339.280975,172.503876 339.690002,159.320190 
	C339.988678,172.366821 339.990936,185.702621 339.989746,199.503845 
z"/>
<path fill="#DCDCDC" opacity="1.000000" stroke="none" 
	d="
M281.010254,159.496155 
	C281.323853,159.589508 281.906860,160.149582 281.904205,160.706909 
	C281.843445,173.601669 281.719055,186.496124 281.309998,199.679810 
	C281.011322,186.633179 281.009064,173.297379 281.010254,159.496155 
z"/>
<path fill="#221C1A" opacity="1.000000" stroke="none" 
	d="
M62.865150,368.581055 
	C62.145103,368.876038 61.682922,368.949982 61.220737,369.023926 
	C61.048985,368.791321 60.877228,368.558716 60.705471,368.326080 
	C62.525810,366.865479 64.346153,365.404877 66.894890,363.359802 
	C66.894890,369.210114 66.894890,373.989471 66.894890,378.768829 
	C66.344727,378.789062 65.794563,378.809296 65.244400,378.829529 
	C65.244400,375.756927 65.331879,372.679108 65.149788,369.617279 
	C65.122566,369.159637 63.830143,368.777252 62.865150,368.581055 
z"/>
<path fill="#221C1A" opacity="1.000000" stroke="none" 
	d="
M68.893303,236.914062 
	C68.199677,239.545181 67.364510,241.785843 66.529335,244.026505 
	C66.037308,243.865234 65.545280,243.703979 65.053261,243.542725 
	C65.514481,241.995087 65.975700,240.447449 66.559845,238.487335 
	C64.307922,238.199753 62.077251,237.914871 59.846577,237.630005 
	C59.877583,237.114395 59.908585,236.598770 59.939590,236.083160 
	C62.876980,236.229965 65.814369,236.376785 68.893303,236.914062 
z"/>
<path fill="#D3D3D3" opacity="1.000000" stroke="none" 
	d="
M63.772888,305.058990 
	C62.410721,301.426422 63.051868,300.999542 68.465042,301.772858 
	C69.087753,304.772919 69.696991,307.708069 70.459259,311.380493 
	C69.083969,313.648254 67.533287,316.644257 63.691002,312.314331 
	C62.834576,311.349243 60.281567,311.889648 57.326050,311.634888 
	C58.621933,309.985565 59.373463,309.029053 60.809055,308.101074 
	C62.253040,307.106079 63.012962,306.082520 63.772888,305.058990 
z"/>
<path fill="#221C1A" opacity="1.000000" stroke="none" 
	d="
M63.436775,305.070496 
	C63.012962,306.082520 62.253040,307.106079 61.171772,308.050018 
	C61.600506,307.007629 62.350586,306.044830 63.436775,305.070496 
z"/>
<path fill="#221C1A" opacity="1.000000" stroke="none" 
	d="
M139.683136,300.321930 
	C142.349457,300.169281 144.621674,300.169281 147.534012,300.169281 
	C145.385803,303.677490 139.861526,299.550507 140.378189,304.946503 
	C142.874313,305.813904 145.153687,306.605957 147.433060,307.398041 
	C147.296707,307.704590 147.160355,308.011108 147.024017,308.317657 
	C144.363052,308.013916 141.702103,307.710144 138.213409,307.311890 
	C138.518143,305.374756 138.903580,302.924652 139.683136,300.321930 
z"/>
<path fill="#221C1A" opacity="1.000000" stroke="none" 
	d="
M215.991669,308.993011 
	C217.048615,307.149811 218.105560,305.306610 219.432510,302.992523 
	C222.167435,305.716644 227.323120,305.843140 225.994217,311.255524 
	C225.694489,312.476257 224.307083,313.429962 222.844696,313.792236 
	C223.362167,312.178040 223.879639,310.563843 224.397125,308.949646 
	C222.697693,308.451904 220.998260,307.954163 218.809738,307.926636 
	C217.544327,308.595581 216.768005,308.794312 215.991669,308.993011 
z"/>
<path fill="#D3D3D3" opacity="1.000000" stroke="none" 
	d="
M215.723969,309.207581 
	C216.768005,308.794312 217.544327,308.595581 218.608643,308.278473 
	C218.934280,308.646149 219.055771,309.143066 218.994522,309.616333 
	C218.776932,311.297729 218.497055,312.971100 218.240784,314.647491 
	C217.312622,312.905701 216.384445,311.163940 215.723969,309.207581 
z"/>
<path fill="#D3D3D3" opacity="1.000000" stroke="none" 
	d="
M224.341919,247.059998 
	C223.261780,248.308212 222.401642,249.277847 220.900650,250.969894 
	C219.652466,246.284927 222.863480,243.940735 224.424850,241.063385 
	C223.564331,239.727722 222.692856,238.375031 221.527313,236.565903 
	C227.836578,236.936371 228.552124,240.370178 224.341919,247.059998 
z"/>
<path fill="#D3D3D3" opacity="1.000000" stroke="none" 
	d="
M219.307404,242.474533 
	C219.536209,243.682129 219.637146,244.555908 219.738098,245.429688 
	C219.318756,245.647095 218.899429,245.864487 218.480103,246.081894 
	C217.331512,244.315933 215.479721,242.631561 215.262314,240.757568 
	C215.095825,239.322433 216.993729,237.647797 217.973450,236.079681 
	C218.455154,236.294739 218.936844,236.509811 219.418549,236.724869 
	C219.338882,238.530151 219.259216,240.335434 219.307404,242.474533 
z"/>
<path fill="#221C1A" opacity="1.000000" stroke="none" 
	d="
M140.818649,441.141205 
	C144.056976,443.666534 145.631241,442.285187 146.133972,438.784302 
	C146.320969,437.482056 146.161102,436.130035 146.204376,434.099304 
	C147.056763,433.797760 147.864182,434.197601 148.671585,434.597443 
	C148.471115,435.867310 148.072845,437.142578 148.107635,438.405975 
	C148.207855,442.045898 146.741867,444.148315 142.920731,444.086761 
	C139.085190,444.025024 137.723373,441.768433 137.873398,438.215179 
	C137.915146,437.225830 137.812195,436.230377 137.810318,434.761536 
	C138.038513,433.465210 138.232025,432.645081 138.425522,431.824982 
	C138.425522,431.824982 138.424149,431.585632 138.606750,431.614685 
	C139.235016,432.405640 139.680664,433.167572 140.126312,433.929474 
	C140.041275,435.037598 139.956253,436.145721 139.876587,437.990143 
	C140.194168,439.531372 140.506409,440.336273 140.818649,441.141205 
z"/>
<path fill="#D3D3D3" opacity="1.000000" stroke="none" 
	d="
M148.760193,434.210999 
	C147.864182,434.197601 147.056763,433.797760 146.083771,433.671143 
	C145.475113,432.663177 144.991425,431.392059 144.666626,430.081512 
	C144.640839,429.977478 146.156784,429.308228 146.213730,429.394073 
	C147.162338,430.824280 147.992340,432.333191 148.760193,434.210999 
z"/>
<path fill="#D3D3D3" opacity="1.000000" stroke="none" 
	d="
M140.381989,433.737488 
	C139.680664,433.167572 139.235016,432.405640 138.496063,431.569214 
	C139.022903,430.810089 139.843079,430.125488 140.663239,429.440918 
	C140.654709,430.809113 140.646194,432.177307 140.381989,433.737488 
z"/>
<path fill="#D3D3D3" opacity="1.000000" stroke="none" 
	d="
M138.078949,432.050964 
	C138.232025,432.645081 138.038513,433.465210 137.588013,434.445129 
	C137.464798,433.828918 137.598587,433.052917 138.078949,432.050964 
z"/>
<path fill="#D3D3D3" opacity="1.000000" stroke="none" 
	d="
M140.877502,440.805206 
	C140.506409,440.336273 140.194168,439.531372 139.983643,438.396545 
	C140.369034,438.867493 140.652695,439.668365 140.877502,440.805206 
z"/>
<path fill="#C2C9C6" opacity="1.000000" stroke="none" 
	d="
M66.680840,442.966187 
	C63.596447,436.217865 64.311607,432.729584 69.063202,429.813660 
	C69.254692,433.960693 69.505882,438.107788 69.514870,442.255371 
	C69.515587,442.584381 67.837364,442.917023 66.680840,442.966187 
z"/>
<path fill="#C2C9C6" opacity="1.000000" stroke="none" 
	d="
M59.004410,443.004456 
	C59.366497,438.816833 59.728584,434.629181 60.114098,430.170624 
	C63.660828,430.335236 63.980125,433.307190 63.903622,436.018280 
	C63.821918,438.913727 64.677345,442.758240 59.399269,442.991943 
	C59.000000,443.000000 59.004414,443.004456 59.004410,443.004456 
z"/>
<path fill="#C2C9C6" opacity="1.000000" stroke="none" 
	d="
M58.997986,442.997803 
	C57.761951,443.378845 55.987106,444.459534 55.402081,444.005859 
	C54.017025,442.931793 52.725513,441.257080 52.272091,439.587341 
	C51.746597,437.652191 51.776272,435.361755 52.289551,433.416779 
	C52.669037,431.978821 54.208401,430.847015 55.751251,430.005585 
	C55.708515,434.867249 52.603947,439.618713 58.615700,442.999237 
	C59.004414,443.004456 59.000000,443.000000 58.997986,442.997803 
z"/>
<path fill="#C2C9C6" opacity="1.000000" stroke="none" 
	d="
M73.003876,430.994843 
	C74.160957,431.096527 75.822350,430.750031 76.383385,431.381409 
	C78.295822,433.533447 76.852509,441.248871 74.214867,443.581146 
	C73.828102,439.512054 73.454285,435.579163 73.040237,431.323151 
	C73.000000,431.000000 73.003876,430.994843 73.003876,430.994843 
z"/>
<path fill="#C2C9C6" opacity="1.000000" stroke="none" 
	d="
M72.997292,431.002075 
	C72.875893,430.864288 72.757202,430.724365 72.638519,430.584473 
	C72.721809,430.632507 72.805099,430.680573 72.946136,430.861755 
	C73.003876,430.994843 73.000000,431.000000 72.997292,431.002075 
z"/>
<path fill="#C2C9C6" opacity="1.000000" stroke="none" 
	d="
M147.931366,240.896362 
	C147.663055,242.058945 147.037720,243.084549 147.325653,243.596909 
	C148.563019,245.798676 150.386154,248.260864 147.313339,249.917023 
	C144.336258,251.521606 140.793991,252.848160 137.787354,249.469162 
	C137.369278,248.999313 136.583862,248.477051 136.623825,248.038788 
	C136.953537,244.422318 137.437927,240.819946 138.034744,235.900497 
	C139.777481,238.334808 140.652145,239.556549 142.016266,241.462006 
	C143.197723,239.599060 144.084778,238.200302 145.468643,236.018188 
	C146.439194,237.749191 147.216888,239.136215 147.931366,240.896362 
z"/>
<path fill="#000000" opacity="1.000000" stroke="none" 
	d="
M306.795563,174.360443 
	C307.895569,175.762009 308.710510,176.875488 309.625702,178.125961 
	C308.752625,179.038574 307.413269,180.438568 306.073883,181.838577 
	C306.594757,181.344666 307.115662,180.850769 307.636536,180.356873 
	C306.930023,178.475616 306.223511,176.594345 305.516998,174.713074 
	C304.416046,175.834885 303.315063,176.956696 302.214081,178.078491 
	C303.646240,176.743118 305.078400,175.407745 306.795563,174.360443 
z"/>
<path fill="#221C1A" opacity="1.000000" stroke="none" 
	d="
M246.746658,176.631271 
	C247.798386,176.949936 248.623764,177.570786 249.449158,178.191650 
	C244.176666,180.934753 248.821594,183.734512 249.706802,187.972198 
	C247.352188,186.261795 245.885269,185.196228 244.432877,184.141205 
	C243.378647,185.086731 242.075668,186.255356 240.772690,187.423981 
	C240.448624,187.160004 240.124542,186.896011 239.800476,186.632019 
	C240.651703,184.999908 241.502930,183.367813 242.534164,181.390579 
	C241.705490,179.946426 240.744186,178.271164 239.782898,176.595917 
	C240.003525,176.291489 240.224152,175.987061 240.444763,175.682632 
	C241.884308,176.688217 243.323853,177.693802 244.995026,178.861191 
	C245.335052,178.431458 245.927689,177.682465 246.746658,176.631271 
z"/>
<path fill="#DCDCDC" opacity="1.000000" stroke="none" 
	d="
M52.423531,173.421295 
	C52.856087,176.774704 53.013199,179.880157 53.240547,184.373978 
	C51.285530,182.932709 50.208939,182.139023 49.067490,181.297531 
	C48.567310,181.773300 47.555855,182.735413 46.544399,183.697525 
	C46.041992,183.641632 45.539581,183.585739 45.037170,183.529846 
	C48.153446,179.684494 48.340588,176.051270 44.493366,172.710220 
	C45.004025,172.468567 45.514683,172.226913 46.025341,171.985260 
	C47.236534,173.025070 48.447723,174.064880 48.957993,174.502945 
	C50.231941,173.971970 51.190014,173.572647 52.423531,173.421295 
z"/>
<path fill="#DCDCDC" opacity="1.000000" stroke="none" 
	d="
M41.030945,173.603333 
	C41.663883,176.780624 41.903439,179.945404 42.142994,183.110168 
	C41.447392,183.115707 40.751789,183.121231 40.056190,183.126770 
	C40.249981,179.948120 40.443771,176.769470 41.030945,173.603333 
z"/>
</svg>