<svg version="1.1" id="Layer_1" xmlns="http://www.w3.org/2000/svg" xmlns:xlink="http://www.w3.org/1999/xlink" x="0px" y="0px"
	 width="100%" viewBox="0 0 120 120" enable-background="new 0 0 120 120" xml:space="preserve">
<path fill="#171516" opacity="1.000000" stroke="none" 
	d="
M1.000001,78.000000 
	C1.000000,67.645775 1.000000,57.291546 1.358002,46.417015 
	C2.226928,45.116161 2.927924,44.400715 3.220870,43.545502 
	C9.859657,24.164532 22.748053,11.042072 42.173203,4.359154 
	C43.239155,3.992428 44.053772,2.895145 45.448433,2.054327 
	C56.279224,2.026464 66.646965,2.082191 77.074310,2.486191 
	C77.781593,3.269567 78.371933,3.875980 79.085320,4.114806 
	C98.713608,10.685865 111.941078,23.684368 118.695114,43.288742 
	C119.054947,44.333214 120.213356,45.102570 121.000000,46.000000 
	C121.000000,56.354229 121.000000,66.708458 120.641998,77.582985 
	C119.702126,79.041687 118.892052,79.908752 118.572990,80.929314 
	C114.495682,93.971024 106.287689,103.940163 95.484978,111.934723 
	C92.125778,114.420708 88.511963,116.562637 84.569321,118.945053 
	C81.410164,118.963470 78.696396,118.898926 75.927536,118.429626 
	C75.581627,113.909729 75.360474,109.788177 74.983246,105.680969 
	C74.452492,99.902161 73.805977,94.133980 73.168396,87.968987 
	C73.816727,87.818741 75.902969,87.387856 77.961273,86.850067 
	C96.832466,81.919502 104.583305,62.647312 94.604713,45.847828 
	C93.591080,44.141342 93.448860,41.815449 93.261589,39.744503 
	C93.000191,36.853722 93.205711,33.922161 92.976395,31.026665 
	C92.701653,27.557707 90.665237,25.905617 87.671364,28.044828 
	C79.336914,34.000034 70.094467,32.613644 60.889870,32.001381 
	C60.724129,31.990356 60.554665,31.981649 60.390877,32.002628 
	C51.255192,33.172878 42.263435,33.524773 34.138672,27.960804 
	C33.262402,27.360720 31.982309,27.350315 29.812031,26.786406 
	C29.229130,30.798740 27.819094,34.592278 28.411022,38.042328 
	C29.041302,41.715912 28.510378,44.367477 26.471941,47.287392 
	C19.559082,57.189548 24.277033,78.334221 34.210732,82.708672 
	C39.408833,84.997719 44.792759,86.864792 50.102009,88.926025 
	C49.269783,90.575958 48.175465,92.438171 47.373936,94.418884 
	C46.530655,96.502777 45.967426,98.700012 45.096851,101.427155 
	C43.744686,100.176018 42.839954,99.338890 41.935223,98.501762 
	C41.940384,98.930916 41.945541,99.360077 41.950699,99.789230 
	C39.395115,100.023331 35.112953,101.234688 34.593239,100.316475 
	C32.695541,96.963699 28.945290,97.531548 26.699816,94.630737 
	C26.784746,102.727524 33.498589,105.877274 47.323952,104.559616 
	C46.879070,109.420021 46.448212,114.127190 45.570786,118.910225 
	C42.411270,118.944756 39.698334,118.903419 36.930351,118.521660 
	C36.692127,117.916435 36.569195,117.524216 36.317150,117.405029 
	C20.536486,109.942574 9.443286,98.244614 3.691627,81.614914 
	C3.223534,80.261520 1.916960,79.198135 1.000001,78.000000 
M23.921913,90.351768 
	C23.283606,89.898956 22.645300,89.446136 21.985025,88.250099 
	C21.075378,87.468231 20.165733,86.686356 19.256088,85.904480 
	C18.930742,86.446808 18.605394,86.989128 18.280048,87.531456 
	C19.517569,88.023529 20.755089,88.515602 22.063324,89.652946 
	C22.706324,90.104431 23.349321,90.555916 23.991360,91.680603 
	C24.791681,91.981880 25.592003,92.283165 26.392324,92.584442 
	C26.562672,92.053955 26.733019,91.523468 26.903366,90.992981 
	C25.937788,90.992981 24.972210,90.992981 23.921913,90.351768 
z"/>
<path fill="#000000" opacity="1.000000" stroke="none" 
	d="
M44.985382,2.137919 
	C44.053772,2.895145 43.239155,3.992428 42.173203,4.359154 
	C22.748053,11.042072 9.859657,24.164532 3.220870,43.545502 
	C2.927924,44.400715 2.226928,45.116161 1.358002,45.948357 
	C1.000000,31.645771 1.000000,17.291544 1.468657,2.468657 
	C16.286671,2.045973 30.636026,2.091946 44.985382,2.137919 
z"/>
<path fill="#000000" opacity="1.000000" stroke="none" 
	d="
M121.000000,45.531342 
	C120.213356,45.102570 119.054947,44.333214 118.695114,43.288742 
	C111.941078,23.684368 98.713608,10.685865 79.085320,4.114806 
	C78.371933,3.875980 77.781593,3.269567 77.538162,2.422101 
	C92.294945,2.006493 106.647476,2.003246 121.000000,2.000000 
	C121.000000,16.354227 121.000000,30.708456 121.000000,45.531342 
z"/>
<path fill="#000000" opacity="1.000000" stroke="none" 
	d="
M1.000001,78.468658 
	C1.916960,79.198135 3.223534,80.261520 3.691627,81.614914 
	C9.443286,98.244614 20.536486,109.942574 36.317150,117.405029 
	C36.569195,117.524216 36.692127,117.916435 36.466484,118.585747 
	C24.371771,118.993500 12.685885,118.996750 1.000000,119.000000 
	C1.000000,105.645775 1.000000,92.291542 1.000001,78.468658 
z"/>
<path fill="#000000" opacity="1.000000" stroke="none" 
	d="
M85.014717,118.862083 
	C88.511963,116.562637 92.125778,114.420708 95.484978,111.934723 
	C106.287689,103.940163 114.495682,93.971024 118.572990,80.929314 
	C118.892052,79.908752 119.702126,79.041687 120.641998,78.051643 
	C121.000000,91.354225 121.000000,104.708458 120.531342,118.531342 
	C108.380028,118.954033 96.697372,118.908058 85.014717,118.862083 
z"/>
<path fill="#FFFFFF" opacity="1.000000" stroke="none" 
	d="
M84.569321,118.945053 
	C96.697372,118.908058 108.380028,118.954033 120.531342,119.000000 
	C121.623108,121.466415 119.849289,120.992455 118.518211,120.994400 
	C110.716606,121.005806 102.914978,121.000000 95.113358,121.000000 
	C65.068817,121.000000 35.024258,121.012749 4.979821,120.957634 
	C3.652633,120.955200 2.326582,120.333328 1.000000,119.500000 
	C12.685885,118.996750 24.371771,118.993500 36.521523,118.926170 
	C39.698334,118.903419 42.411270,118.944756 46.032749,118.987190 
	C56.621735,118.936989 66.302177,118.885681 75.982628,118.834373 
	C78.696396,118.898926 81.410164,118.963470 84.569321,118.945053 
z"/>
<path fill="#FFFFFF" opacity="1.000000" stroke="none" 
	d="
M121.000000,1.500000 
	C106.647476,2.003246 92.294945,2.006493 77.478561,2.073829 
	C66.646965,2.082191 56.279224,2.026464 45.448433,2.054328 
	C30.636026,2.091946 16.286671,2.045973 1.468657,2.000000 
	C2.333333,1.666667 3.666277,1.043902 5.000057,1.042105 
	C43.666653,0.990016 82.333336,1.000000 121.000000,1.500000 
z"/>
<path fill="#000000" opacity="1.000000" stroke="none" 
	d="
M75.927536,118.429626 
	C66.302177,118.885681 56.621735,118.936989 46.479324,118.911331 
	C46.448212,114.127190 46.879070,109.420021 47.323952,104.559616 
	C33.498589,105.877274 26.784746,102.727524 26.699816,94.630737 
	C28.945290,97.531548 32.695541,96.963699 34.593239,100.316475 
	C35.112953,101.234688 39.395115,100.023331 41.950699,99.789230 
	C41.945541,99.360077 41.940384,98.930916 41.935223,98.501762 
	C42.839954,99.338890 43.744686,100.176018 45.096851,101.427155 
	C45.967426,98.700012 46.530655,96.502777 47.373936,94.418884 
	C48.175465,92.438171 49.269783,90.575958 50.102009,88.926025 
	C44.792759,86.864792 39.408833,84.997719 34.210732,82.708672 
	C24.277033,78.334221 19.559082,57.189548 26.471941,47.287392 
	C28.510378,44.367477 29.041302,41.715912 28.411022,38.042328 
	C27.819094,34.592278 29.229130,30.798740 29.812031,26.786406 
	C31.982309,27.350315 33.262402,27.360720 34.138672,27.960804 
	C42.263435,33.524773 51.255192,33.172878 60.390877,32.002628 
	C60.554665,31.981649 60.724129,31.990356 60.889870,32.001381 
	C70.094467,32.613644 79.336914,34.000034 87.671364,28.044828 
	C90.665237,25.905617 92.701653,27.557707 92.976395,31.026665 
	C93.205711,33.922161 93.000191,36.853722 93.261589,39.744503 
	C93.448860,41.815449 93.591080,44.141342 94.604713,45.847828 
	C104.583305,62.647312 96.832466,81.919502 77.961273,86.850067 
	C75.902969,87.387856 73.816727,87.818741 73.168396,87.968987 
	C73.805977,94.133980 74.452492,99.902161 74.983246,105.680969 
	C75.360474,109.788177 75.581627,113.909729 75.927536,118.429626 
z"/>
<path fill="#000000" opacity="1.000000" stroke="none" 
	d="
M21.992607,89.007675 
	C20.755089,88.515602 19.517569,88.023529 18.280048,87.531456 
	C18.605394,86.989128 18.930742,86.446808 19.256088,85.904480 
	C20.165733,86.686356 21.075378,87.468231 21.992447,88.625114 
	C21.999868,89.000130 21.992607,89.007675 21.992607,89.007675 
z"/>
<path fill="#000000" opacity="1.000000" stroke="none" 
	d="
M24.006632,90.992981 
	C24.972210,90.992981 25.937788,90.992981 26.903366,90.992981 
	C26.733019,91.523468 26.562672,92.053955 26.392324,92.584442 
	C25.592003,92.283165 24.791681,91.981880 23.995626,91.340347 
	C23.999893,91.000084 24.006632,90.992981 24.006632,90.992981 
z"/>
<path fill="#000000" opacity="1.000000" stroke="none" 
	d="
M23.996107,91.003738 
	C23.349321,90.555916 22.706324,90.104431 22.027966,89.330307 
	C21.992607,89.007675 21.999868,89.000130 22.003429,88.996727 
	C22.645300,89.446136 23.283606,89.898956 23.964272,90.672379 
	C24.006632,90.992981 23.999893,91.000084 23.996107,91.003738 
z"/>
</svg>