<svg version="1.1" id="Layer_1" xmlns="http://www.w3.org/2000/svg" xmlns:xlink="http://www.w3.org/1999/xlink" x="0px" y="0px"
	 width="100%" viewBox="0 0 800 665" enable-background="new 0 0 800 665" xml:space="preserve">
<path fill="#201F1F" opacity="1.000000" stroke="none" 
	d="
M801.000000,425.000000 
	C801.000000,453.687561 801.000000,482.375122 800.531372,511.529938 
	C696.729553,511.997192 593.396362,511.997192 489.619141,511.997192 
	C489.619141,516.602600 489.711426,520.726685 489.602997,524.845459 
	C489.158752,541.715271 495.502289,554.482422 511.345093,561.849060 
	C516.515381,564.253174 517.771790,567.915161 515.593323,572.779175 
	C514.909180,573.267090 514.502869,573.668030 514.069702,574.036438 
	C514.042969,574.003967 514.056946,574.087036 513.635925,574.137329 
	C511.293549,574.511414 509.293182,575.352295 507.464020,575.072632 
	C497.629242,573.569702 487.837097,571.788086 477.730103,569.916321 
	C462.289062,562.844482 454.562866,551.025635 454.096222,534.459839 
	C453.946320,529.137390 454.043213,523.807800 454.034698,518.481506 
	C454.028168,514.389954 454.033386,510.298370 454.033386,506.355316 
	C449.947510,506.355316 446.553864,506.355316 443.049530,506.355316 
	C443.049530,525.341919 442.664520,543.982239 443.200684,562.596008 
	C443.499939,572.984741 446.436279,582.733948 456.914978,588.486084 
	C460.341797,595.348450 459.315765,598.262451 452.166595,601.638428 
	C450.533417,601.836060 449.277435,601.988953 447.620483,602.065186 
	C436.488251,600.386108 426.921417,596.022400 417.997375,589.452148 
	C408.491852,581.152466 404.454803,570.911682 404.596771,558.703857 
	C404.782532,542.727051 404.689636,526.747070 404.715820,510.768463 
	C404.718750,508.984406 404.716217,507.200348 404.716217,505.395325 
	C401.212982,505.395325 398.345062,505.395325 395.151703,505.395325 
	C395.151703,522.256165 394.858917,538.720398 395.242828,555.168762 
	C395.558990,568.713379 391.814728,580.374634 381.551392,589.928467 
	C372.979309,596.859680 363.261230,600.250793 352.496277,602.153748 
	C350.046722,602.084473 348.026947,602.065857 345.733124,601.829773 
	C340.217560,597.983459 339.830109,595.462219 343.685211,588.069092 
	C354.761688,582.276062 357.263367,572.673218 357.090332,561.475342 
	C356.856445,546.339355 357.032990,531.196960 357.033386,516.057312 
	C357.033478,513.119385 357.033386,510.181427 357.033386,506.997437 
	C354.961639,506.997437 353.477539,507.104828 352.013885,506.977509 
	C347.399414,506.576172 345.496490,508.339630 345.870453,513.215576 
	C346.289093,518.673645 345.795898,524.194885 345.997498,529.677612 
	C346.683929,548.346191 339.438477,562.231812 321.633301,570.136353 
	C310.265045,574.765137 298.706879,575.467896 286.669006,574.949036 
	C280.787262,571.695068 280.441833,566.888855 285.647705,563.321045 
	C287.267334,562.210999 289.217224,561.579590 291.023560,560.745605 
	C300.985687,556.146179 308.337830,548.987305 309.731537,537.849426 
	C310.731445,529.858643 309.926025,521.641968 309.926025,513.000000 
	C206.990570,513.000000 103.995285,513.000000 1.000000,513.000000 
	C1.000000,484.312439 1.000000,455.624878 1.468657,426.468323 
	C69.975464,425.999298 138.013611,425.999298 207.250366,425.999298 
	C203.607071,420.146973 200.738815,415.539642 197.921661,410.575806 
	C197.269867,408.977844 196.634125,407.692322 195.853729,406.501617 
	C187.697723,394.057587 177.138809,384.467712 162.625931,379.023468 
	C108.434013,379.010101 54.717007,379.005035 1.000000,379.000000 
	C1.000000,257.979095 1.000000,136.958206 1.466985,15.468758 
	C268.289307,14.666800 534.644653,14.333401 801.000000,14.000000 
	C801.000000,135.020889 801.000000,256.041779 800.533936,377.531250 
	C724.491577,377.999695 648.915222,377.991028 573.338928,378.003143 
	C536.550049,378.009064 499.761200,378.053925 462.506744,378.057343 
	C424.931732,378.011932 387.822357,377.997070 350.712982,377.951385 
	C348.560547,377.948761 346.364014,377.361603 344.266571,377.639374 
	C341.114319,378.056854 337.629486,378.328979 335.024139,379.892670 
	C331.976746,381.721771 329.654480,384.808868 327.171967,387.492950 
	C326.576599,388.136688 326.591339,389.344757 326.623383,389.230469 
	C338.554077,387.766144 350.315948,385.852325 362.154449,384.988220 
	C377.043457,383.901428 391.992554,383.312561 406.920654,383.207581 
	C416.178833,383.142395 425.503662,383.930206 434.696533,385.121948 
	C450.338196,387.149658 464.980896,391.954529 475.716949,404.386993 
	C479.915588,409.249054 483.223267,414.880554 486.942169,420.559570 
	C487.088470,426.028320 490.906708,424.974030 493.882599,424.974945 
	C596.255066,425.006104 698.627502,425.000397 801.000000,425.000000 
M307.977112,435.831696 
	C307.977112,444.294891 307.977112,452.758087 307.977112,461.221252 
	C308.833069,461.211273 309.689056,461.201263 310.545013,461.191284 
	C310.545013,447.750671 310.545013,434.310059 310.545013,419.411530 
	C309.816193,422.859985 309.360626,425.015594 308.147949,426.942383 
	C304.844055,426.603760 301.856415,427.541321 301.847168,431.187622 
	C301.837952,434.810944 304.984711,435.165253 307.977112,435.831696 
M231.190140,251.021896 
	C231.449890,259.498199 231.091446,268.047455 232.081741,276.437531 
	C235.464340,305.096222 249.227783,327.124786 274.931427,341.101746 
	C292.752686,350.792450 312.121948,355.378937 332.014740,358.009674 
	C371.332642,363.209259 410.848724,362.758759 450.281067,360.513977 
	C467.619476,359.526917 485.115143,356.865448 501.963043,352.656921 
	C533.397461,344.804749 554.111023,325.030090 561.602112,292.772186 
	C564.863831,278.726990 565.932373,264.486664 564.870483,249.299454 
	C564.594482,248.001999 564.290405,246.709808 564.046692,245.406311 
	C557.951111,212.803452 528.004456,185.312012 495.094055,184.321060 
	C472.378906,183.637085 449.589050,185.987061 426.824219,186.247513 
	C403.055847,186.519455 379.277252,185.933548 355.503510,185.682800 
	C335.751709,185.474487 315.899719,183.835526 296.271820,185.277298 
	C263.715546,187.668777 234.685547,217.679688 231.190140,251.021896 
M221.038254,415.511292 
	C221.729126,416.430573 222.243988,417.848572 223.146835,418.167206 
	C225.137436,418.869690 227.323685,419.017853 229.430084,419.392242 
	C229.642654,417.583954 230.699738,414.988800 229.896637,414.126892 
	C228.076675,412.173645 225.340210,411.074341 222.976425,409.627808 
	C222.262619,411.357941 221.548813,413.088074 221.038254,415.511292 
M237.062347,430.437775 
	C238.196854,431.370148 239.237595,432.904633 240.487030,433.099243 
	C242.562805,433.422546 244.853912,433.136749 246.854584,432.489777 
	C247.236130,432.366394 247.291534,428.419250 246.463730,427.907135 
	C244.124939,426.460175 241.278229,425.737549 238.539856,425.182404 
	C238.265930,425.126862 237.364700,428.165619 237.062347,430.437775 
M261.059387,439.842316 
	C262.694366,439.831665 264.618530,440.351868 265.883820,439.662598 
	C267.174164,438.959686 267.816772,437.067841 268.743011,435.696594 
	C266.665100,434.346405 264.722931,432.337708 262.462738,431.871765 
	C260.890350,431.547577 258.881104,433.342316 257.067017,434.190430 
	C258.147369,435.971985 259.227692,437.753540 261.059387,439.842316 
M285.483765,440.431580 
	C288.655457,440.033630 292.573059,439.732910 291.288025,435.310364 
	C290.828522,433.729004 287.122345,432.302277 284.886108,432.284210 
	C283.203339,432.270599 281.501495,434.617004 279.808136,435.912811 
	C281.451477,437.394470 283.094818,438.876099 285.483765,440.431580 
M210.565247,392.864716 
	C205.698563,394.372345 207.354736,397.574554 208.943726,400.279572 
	C210.363174,402.695984 212.986191,404.580566 215.536057,402.365112 
	C218.222626,400.030792 216.560791,397.137970 214.634674,394.924896 
	C213.829010,393.999298 212.452393,393.570618 210.565247,392.864716 
M196.482483,379.857635 
	C193.939362,383.420319 196.315048,385.514221 199.065216,386.809723 
	C200.220993,387.354126 202.172760,386.208679 203.762680,385.831451 
	C202.340973,383.718262 201.001129,381.540436 199.426712,379.547913 
	C199.121475,379.161591 197.901169,379.498322 196.482483,379.857635 
M183.867172,374.736877 
	C184.493195,375.245239 185.145905,376.210144 185.740143,376.175415 
	C187.449493,376.075439 189.135208,375.571503 190.830215,375.226288 
	C189.757828,373.808441 188.961121,371.699341 187.548035,371.135773 
	C185.460190,370.303131 182.732346,370.304871 183.867172,374.736877 
M324.470306,391.499420 
	C324.470306,391.499420 324.529419,391.474091 324.470306,391.499420 
z"/>
<path fill="#9CDAF0" opacity="1.000000" stroke="none" 
	d="
M515.871155,572.692261 
	C517.771790,567.915161 516.515381,564.253174 511.345093,561.849060 
	C495.502289,554.482422 489.158752,541.715271 489.602997,524.845459 
	C489.711426,520.726685 489.619141,516.602600 489.619141,511.997192 
	C593.396362,511.997192 696.729553,511.997192 800.531372,511.998596 
	C801.000000,558.354248 801.000000,604.708435 800.531372,651.531372 
	C683.765259,652.000000 567.467896,652.000061 451.170502,651.999451 
	C449.670990,651.999451 447.962555,652.441895 446.726532,651.869019 
	C445.283478,651.200012 443.227814,649.666138 443.198547,648.464661 
	C442.817932,632.834045 442.070801,617.122925 448.021484,602.141846 
	C449.277435,601.988953 450.533417,601.836060 452.478577,601.970947 
	C453.454102,604.192871 453.976044,606.125427 453.988434,608.061340 
	C454.068176,620.523804 454.119293,632.987854 453.987610,645.449402 
	C453.951080,648.905090 455.161194,650.454041 458.629425,649.992371 
	C467.490051,648.812988 476.334595,647.493896 485.214996,646.490723 
	C488.963898,646.067200 490.159729,644.460449 490.077759,640.715210 
	C489.845184,630.085205 489.621063,619.430786 490.081421,608.815796 
	C490.687012,594.851196 496.928223,584.152649 509.856659,577.811340 
	C511.476074,577.017029 512.667358,575.349854 514.056946,574.087036 
	C514.056946,574.087036 514.042969,574.003967 514.370239,573.992981 
	C515.088684,573.552063 515.479919,573.122131 515.871155,572.692261 
z"/>
<path fill="#9CDAF0" opacity="1.000000" stroke="none" 
	d="
M346.007202,602.047241 
	C348.026947,602.065857 350.046722,602.084473 352.511902,602.545532 
	C353.973907,607.519836 355.567017,612.010986 355.889282,616.591675 
	C356.600250,626.696655 356.787781,636.844910 356.940369,646.979248 
	C356.995300,650.626831 358.354492,652.152222 361.985565,651.993774 
	C365.431946,651.843506 368.890045,651.961426 372.342987,651.961426 
	C372.328400,652.307617 372.313812,652.653809 372.299255,653.000000 
	C248.532822,653.000000 124.766411,653.000000 1.000000,653.000000 
	C1.000000,606.645752 1.000000,560.291565 1.000000,513.468628 
	C103.995285,513.000000 206.990570,513.000000 309.926025,513.000000 
	C309.926025,521.641968 310.731445,529.858643 309.731537,537.849426 
	C308.337830,548.987305 300.985687,556.146179 291.023560,560.745605 
	C289.217224,561.579590 287.267334,562.210999 285.647705,563.321045 
	C280.441833,566.888855 280.787262,571.695068 286.864685,575.228027 
	C287.919037,576.046570 288.406708,576.529846 288.991974,576.806763 
	C302.615082,583.253296 309.852661,593.895386 310.011078,609.062622 
	C310.124146,619.887207 310.083374,630.714478 309.990936,641.539551 
	C309.967621,644.272461 310.600830,645.818726 313.698273,646.197083 
	C322.748260,647.302795 331.762421,648.699829 340.794037,649.958313 
	C344.558350,650.482849 346.131439,649.131226 346.070801,645.016296 
	C345.859772,630.696045 346.000305,616.370728 346.007202,602.047241 
z"/>
<path fill="#7CBAE6" opacity="1.000000" stroke="none" 
	d="
M1.000000,653.476685 
	C124.766411,653.000000 248.532822,653.000000 372.299255,653.000000 
	C372.313812,652.653809 372.328400,652.307617 372.342987,651.961426 
	C368.890045,651.961426 365.431946,651.843506 361.985565,651.993774 
	C358.354492,652.152222 356.995300,650.626831 356.940369,646.979248 
	C356.787781,636.844910 356.600250,626.696655 355.889282,616.591675 
	C355.567017,612.010986 353.973907,607.519836 352.941711,602.596252 
	C363.261230,600.250793 372.979309,596.859680 381.725098,590.236816 
	C390.446136,601.473816 394.221222,613.926086 394.039001,627.663208 
	C393.953064,634.141724 393.901550,640.627075 394.101379,647.101074 
	C394.265961,652.433533 395.426331,652.910706 401.443756,653.097656 
	C406.537323,653.255981 405.953918,650.088257 405.997925,646.883423 
	C406.120850,637.925964 405.977936,628.946045 406.583923,620.018677 
	C407.343079,608.836121 412.188477,599.024902 418.164703,589.737366 
	C426.921417,596.022400 436.488251,600.386108 447.620483,602.065186 
	C442.070801,617.122925 442.817932,632.834045 443.198547,648.464661 
	C443.227814,649.666138 445.283478,651.200012 446.726532,651.869019 
	C447.962555,652.441895 449.670990,651.999451 451.170502,651.999451 
	C567.467896,652.000061 683.765259,652.000000 800.531372,652.000000 
	C801.000000,656.664124 801.000000,661.328186 801.000000,665.973389 
	C534.333313,665.973389 267.666656,665.973389 1.000000,665.973389 
	C1.000000,661.948975 1.000000,657.951111 1.000000,653.476685 
z"/>
<path fill="#000000" opacity="1.000000" stroke="none" 
	d="
M801.000000,13.526947 
	C534.644653,14.333401 268.289307,14.666800 1.466985,15.000100 
	C1.000000,10.335853 1.000000,5.671705 1.000000,1.003778 
	C267.520203,1.000000 534.040405,0.999990 800.560608,1.002481 
	C800.707092,1.002483 800.853516,1.040234 801.000000,1.060350 
	C801.000000,5.058197 801.000000,9.056046 801.000000,13.526947 
z"/>
<path fill="#060606" opacity="1.000000" stroke="none" 
	d="
M197.870560,410.932312 
	C200.738815,415.539642 203.607071,420.146973 207.250366,425.999298 
	C138.013611,425.999298 69.975464,425.999298 1.468657,425.999634 
	C1.000000,417.979095 1.000000,409.958191 1.468657,401.468628 
	C53.236347,401.001038 104.535378,401.002045 155.907074,401.402344 
	C156.927795,409.151367 158.813660,410.957825 165.873093,410.977478 
	C176.538788,411.007172 187.204727,410.951599 197.870560,410.932312 
z"/>
<path fill="#0B0B0B" opacity="1.000000" stroke="none" 
	d="
M801.000000,382.000000 
	C801.000000,386.025177 801.000000,390.050385 800.531372,394.538269 
	C692.705017,395.004486 585.347412,395.008057 477.707001,394.833923 
	C473.615875,390.437073 469.807526,386.217926 466.466187,382.000275 
	C578.288818,382.001190 689.644409,382.000580 801.000000,382.000000 
z"/>
<path fill="#070606" opacity="1.000000" stroke="none" 
	d="
M477.989746,395.011627 
	C585.347412,395.008057 692.705017,395.004486 800.531372,395.000488 
	C801.000000,398.692902 801.000000,402.385834 800.532166,406.539001 
	C694.710754,406.999084 589.357239,406.998932 483.753143,406.767761 
	C481.665009,402.695007 479.827393,398.853333 477.989746,395.011627 
z"/>
<path fill="#0A0A0A" opacity="1.000000" stroke="none" 
	d="
M155.834412,401.003052 
	C104.535378,401.002045 53.236347,401.001038 1.468657,401.000000 
	C1.000000,393.979034 1.000000,386.958099 1.000000,379.468567 
	C54.717007,379.005035 108.434013,379.010101 162.470734,379.376007 
	C160.471786,386.825592 158.153107,393.914337 155.834412,401.003052 
z"/>
<path fill="#070707" opacity="1.000000" stroke="none" 
	d="
M801.000000,424.562500 
	C698.627502,425.000397 596.255066,425.006104 493.882599,424.974945 
	C490.906708,424.974030 487.088470,426.028320 487.021851,420.238464 
	C489.690430,417.097595 486.637268,415.788971 486.475830,414.002075 
	C591.628784,414.001160 696.314392,414.000580 801.000000,414.000000 
	C801.000000,414.444458 801.000000,414.888885 800.737122,415.727417 
	C800.649475,416.747681 800.824707,417.373840 801.000000,418.000000 
	C801.000000,420.041656 801.000000,422.083344 801.000000,424.562500 
z"/>
<path fill="#050505" opacity="1.000000" stroke="none" 
	d="
M801.000000,413.562500 
	C696.314392,414.000580 591.628784,414.001160 486.324493,413.672485 
	C485.138458,411.228394 484.571045,409.113586 484.003662,406.998779 
	C589.357239,406.998932 694.710754,406.999084 800.532166,406.999634 
	C801.000000,409.041656 801.000000,411.083344 801.000000,413.562500 
z"/>
<path fill="#0A0A0A" opacity="1.000000" stroke="none" 
	d="
M462.972351,378.081116 
	C499.761200,378.053925 536.550049,378.009064 573.338928,378.003143 
	C648.915222,377.991028 724.491577,377.999695 800.533936,377.999878 
	C801.000000,378.750000 801.000000,379.500000 800.533020,380.625000 
	C688.711853,381.006927 577.357666,381.013855 465.676941,380.958374 
	C464.557709,379.957733 463.765045,379.019440 462.972351,378.081116 
z"/>
<path fill="#000000" opacity="1.000000" stroke="none" 
	d="
M466.003479,381.020752 
	C577.357666,381.013855 688.711853,381.006927 800.533020,381.000000 
	C801.000000,381.000000 801.000000,381.500000 801.000000,381.750000 
	C689.644409,382.000580 578.288818,382.001190 466.467255,381.755768 
	C466.001282,381.509766 466.003479,381.020752 466.003479,381.020752 
z"/>
<path fill="#010101" opacity="1.000000" stroke="none" 
	d="
M801.000000,417.666687 
	C800.824707,417.373840 800.649475,416.747681 800.737122,416.060760 
	C801.000000,416.444458 801.000000,416.888885 801.000000,417.666687 
z"/>
<path fill="#F4CAB1" opacity="1.000000" stroke="none" 
	d="
M564.704895,250.097275 
	C565.932373,264.486664 564.863831,278.726990 561.602112,292.772186 
	C554.111023,325.030090 533.397461,344.804749 501.963043,352.656921 
	C485.115143,356.865448 467.619476,359.526917 450.281067,360.513977 
	C410.848724,362.758759 371.332642,363.209259 332.014740,358.009674 
	C312.121948,355.378937 292.752686,350.792450 274.931427,341.101746 
	C249.227783,327.124786 235.464340,305.096222 232.081741,276.437531 
	C231.091446,268.047455 231.449890,259.498199 231.579712,250.438721 
	C232.615479,248.174500 233.345123,246.520279 233.894928,244.808273 
	C239.328613,227.888428 249.819336,214.418762 263.433533,203.530396 
	C274.760315,194.471466 288.600372,191.003830 302.771301,191.193665 
	C323.539124,191.471848 344.350342,192.405243 365.031006,194.289368 
	C389.851501,196.550644 414.526123,195.377243 439.271240,193.845322 
	C458.016846,192.684814 476.786713,191.272705 495.548431,191.233109 
	C508.834747,191.205063 521.697632,194.868393 532.433228,203.323380 
	C546.485535,214.390549 556.717407,228.320724 562.343079,245.463120 
	C562.877319,247.090881 563.905823,248.556412 564.704895,250.097275 
M279.109039,292.300140 
	C279.986145,293.908386 280.778595,295.569916 281.753082,297.116821 
	C295.707977,319.269440 319.046356,319.474854 333.272705,297.530029 
	C342.288635,283.622437 343.431793,268.136353 341.489746,252.295593 
	C340.235352,242.064148 336.564819,232.546753 329.681122,224.643814 
	C322.206085,216.061981 313.108368,211.190842 301.382355,214.206619 
	C291.496246,216.749176 284.939453,223.707611 280.464661,232.330353 
	C270.406372,251.712357 270.279938,271.598663 279.109039,292.300140 
M513.551758,221.932190 
	C500.707245,209.696548 483.463684,210.696701 472.473907,224.314743 
	C455.432831,245.431320 454.950989,280.029907 471.398315,301.549927 
	C482.977692,316.700623 500.694672,317.901611 514.127014,304.580048 
	C523.092834,295.688171 527.241638,284.565155 528.508057,272.437256 
	C530.439087,253.946198 527.624268,236.568527 513.551758,221.932190 
M395.304657,338.398987 
	C390.211334,337.369568 386.862579,334.220154 384.169037,329.902527 
	C383.296112,328.503204 381.141327,327.903503 379.572906,326.938049 
	C379.484894,328.850555 378.678101,331.126099 379.429810,332.614532 
	C383.271240,340.220856 389.734314,344.426392 398.235718,344.460449 
	C406.910950,344.495209 413.600525,340.384460 417.507568,332.543335 
	C418.245636,331.062103 417.394775,328.789154 417.277100,326.881531 
	C415.716461,327.887970 413.575592,328.536346 412.695251,329.962646 
	C408.816650,336.246796 403.531403,339.397217 395.304657,338.398987 
M389.969788,309.261627 
	C391.725891,314.996216 395.713776,317.800781 400.426483,316.615570 
	C404.915192,315.486694 407.600433,311.533997 407.043610,306.875061 
	C406.542938,302.685883 402.706757,299.305542 398.476929,299.326233 
	C393.747894,299.349365 390.660461,302.648834 389.969788,309.261627 
z"/>
<path fill="#7CBAE6" opacity="1.000000" stroke="none" 
	d="
M513.635925,574.137329 
	C512.667358,575.349854 511.476074,577.017029 509.856659,577.811340 
	C496.928223,584.152649 490.687012,594.851196 490.081421,608.815796 
	C489.621063,619.430786 489.845184,630.085205 490.077759,640.715210 
	C490.159729,644.460449 488.963898,646.067200 485.214996,646.490723 
	C476.334595,647.493896 467.490051,648.812988 458.629425,649.992371 
	C455.161194,650.454041 453.951080,648.905090 453.987610,645.449402 
	C454.119293,632.987854 454.068176,620.523804 453.988434,608.061340 
	C453.976044,606.125427 453.454102,604.192871 452.855804,601.926147 
	C459.315765,598.262451 460.341797,595.348450 457.222900,588.315796 
	C462.220703,583.391602 466.979401,578.925842 471.870178,574.609802 
	C473.769897,572.933350 475.968018,571.595032 478.030212,570.102661 
	C487.837097,571.788086 497.629242,573.569702 507.464020,575.072632 
	C509.293182,575.352295 511.293549,574.511414 513.635925,574.137329 
z"/>
<path fill="#7CBAE6" opacity="1.000000" stroke="none" 
	d="
M345.733093,601.829834 
	C346.000305,616.370728 345.859772,630.696045 346.070801,645.016296 
	C346.131439,649.131226 344.558350,650.482849 340.794037,649.958313 
	C331.762421,648.699829 322.748260,647.302795 313.698273,646.197083 
	C310.600830,645.818726 309.967621,644.272461 309.990936,641.539551 
	C310.083374,630.714478 310.124146,619.887207 310.011078,609.062622 
	C309.852661,593.895386 302.615082,583.253296 288.991974,576.806763 
	C288.406708,576.529846 287.919037,576.046570 287.190247,575.380493 
	C298.706879,575.467896 310.265045,574.765137 321.822144,570.412720 
	C330.518005,575.174011 337.970032,580.499207 343.403717,588.238586 
	C339.830109,595.462219 340.217560,597.983459 345.733093,601.829834 
z"/>
<path fill="#C39A86" opacity="1.000000" stroke="none" 
	d="
M564.787720,249.698364 
	C563.905823,248.556412 562.877319,247.090881 562.343079,245.463120 
	C556.717407,228.320724 546.485535,214.390549 532.433228,203.323380 
	C521.697632,194.868393 508.834747,191.205063 495.548431,191.233109 
	C476.786713,191.272705 458.016846,192.684814 439.271240,193.845322 
	C414.526123,195.377243 389.851501,196.550644 365.031006,194.289368 
	C344.350342,192.405243 323.539124,191.471848 302.771301,191.193665 
	C288.600372,191.003830 274.760315,194.471466 263.433533,203.530396 
	C249.819336,214.418762 239.328613,227.888428 233.894928,244.808273 
	C233.345123,246.520279 232.615479,248.174500 231.643692,249.980377 
	C234.685547,217.679688 263.715546,187.668777 296.271820,185.277298 
	C315.899719,183.835526 335.751709,185.474487 355.503510,185.682800 
	C379.277252,185.933548 403.055847,186.519455 426.824219,186.247513 
	C449.589050,185.987061 472.378906,183.637085 495.094055,184.321060 
	C528.004456,185.312012 557.951111,212.803452 564.046692,245.406311 
	C564.290405,246.709808 564.594482,248.001999 564.787720,249.698364 
z"/>
<path fill="#99D6EC" opacity="1.000000" stroke="none" 
	d="
M417.997375,589.452148 
	C412.188477,599.024902 407.343079,608.836121 406.583923,620.018677 
	C405.977936,628.946045 406.120850,637.925964 405.997925,646.883423 
	C405.953918,650.088257 406.537323,653.255981 401.443756,653.097656 
	C395.426331,652.910706 394.265961,652.433533 394.101379,647.101074 
	C393.901550,640.627075 393.953064,634.141724 394.039001,627.663208 
	C394.221222,613.926086 390.446136,601.473816 382.045044,590.111694 
	C391.814728,580.374634 395.558990,568.713379 395.242828,555.168762 
	C394.858917,538.720398 395.151703,522.256165 395.151703,505.395325 
	C398.345062,505.395325 401.212982,505.395325 404.716217,505.395325 
	C404.716217,507.200348 404.718750,508.984406 404.715820,510.768463 
	C404.689636,526.747070 404.782532,542.727051 404.596771,558.703857 
	C404.454803,570.911682 408.491852,581.152466 417.997375,589.452148 
z"/>
<path fill="#9BD9EF" opacity="1.000000" stroke="none" 
	d="
M477.730072,569.916260 
	C475.968018,571.595032 473.769897,572.933350 471.870178,574.609802 
	C466.979401,578.925842 462.220703,583.391602 457.101318,587.967773 
	C446.436279,582.733948 443.499939,572.984741 443.200684,562.596008 
	C442.664520,543.982239 443.049530,525.341919 443.049530,506.355316 
	C446.553864,506.355316 449.947510,506.355316 454.033386,506.355316 
	C454.033386,510.298370 454.028168,514.389954 454.034698,518.481506 
	C454.043213,523.807800 453.946320,529.137390 454.096222,534.459839 
	C454.562866,551.025635 462.289062,562.844482 477.730072,569.916260 
z"/>
<path fill="#010101" opacity="1.000000" stroke="none" 
	d="
M465.676941,380.958374 
	C466.003479,381.020752 466.001282,381.509766 466.000214,381.754272 
	C469.807526,386.217926 473.615875,390.437073 477.707001,394.833923 
	C479.827393,398.853333 481.665009,402.695007 483.753143,406.767761 
	C484.571045,409.113586 485.138458,411.228394 485.857178,413.672821 
	C486.637268,415.788971 489.690430,417.097595 487.016418,419.840546 
	C483.223267,414.880554 479.915588,409.249054 475.716949,404.386993 
	C464.980896,391.954529 450.338196,387.149658 434.696533,385.121948 
	C425.503662,383.930206 416.178833,383.142395 406.920654,383.207581 
	C391.992554,383.312561 377.043457,383.901428 362.154449,384.988220 
	C350.315948,385.852325 338.554077,387.766144 326.623383,389.230469 
	C326.591339,389.344757 326.576599,388.136688 327.171967,387.492950 
	C329.654480,384.808868 331.976746,381.721771 335.024139,379.892670 
	C337.629486,378.328979 341.114319,378.056854 344.266571,377.639374 
	C346.364014,377.361603 348.560547,377.948761 350.712982,377.951385 
	C387.822357,377.997070 424.931732,378.011932 462.506744,378.057373 
	C463.765045,379.019440 464.557709,379.957733 465.676941,380.958374 
z"/>
<path fill="#9BD9EF" opacity="1.000000" stroke="none" 
	d="
M343.685211,588.069092 
	C337.970032,580.499207 330.518005,575.174011 322.194824,570.388550 
	C339.438477,562.231812 346.683929,548.346191 345.997498,529.677612 
	C345.795898,524.194885 346.289093,518.673645 345.870453,513.215576 
	C345.496490,508.339630 347.399414,506.576172 352.013885,506.977509 
	C353.477539,507.104828 354.961639,506.997437 357.033386,506.997437 
	C357.033386,510.181427 357.033478,513.119385 357.033386,516.057312 
	C357.032990,531.196960 356.856445,546.339355 357.090332,561.475342 
	C357.263367,572.673218 354.761688,582.276062 343.685211,588.069092 
z"/>
<path fill="#9CDAF0" opacity="1.000000" stroke="none" 
	d="
M155.907074,401.402344 
	C158.153107,393.914337 160.471786,386.825592 162.945648,379.384338 
	C177.138809,384.467712 187.697723,394.057587 195.853729,406.501617 
	C196.634125,407.692322 197.269867,408.977844 197.921661,410.575806 
	C187.204727,410.951599 176.538788,411.007172 165.873093,410.977478 
	C158.813660,410.957825 156.927795,409.151367 155.907074,401.402344 
z"/>
<path fill="#060606" opacity="1.000000" stroke="none" 
	d="
M308.905029,427.171173 
	C309.360626,425.015594 309.816193,422.859985 310.545013,419.411530 
	C310.545013,434.310059 310.545013,447.750671 310.545013,461.191284 
	C309.689056,461.201263 308.833069,461.211273 307.977112,461.221252 
	C307.977112,452.758087 307.977112,444.294891 308.017151,434.986877 
	C308.339813,431.818451 308.622437,429.494812 308.905029,427.171173 
z"/>
<path fill="#97D2E7" opacity="1.000000" stroke="none" 
	d="
M220.936630,415.164734 
	C221.548813,413.088074 222.262619,411.357941 222.976425,409.627808 
	C225.340210,411.074341 228.076675,412.173645 229.896637,414.126892 
	C230.699738,414.988800 229.642654,417.583954 229.430084,419.392242 
	C227.323685,419.017853 225.137436,418.869690 223.146835,418.167206 
	C222.243988,417.848572 221.729126,416.430573 220.936630,415.164734 
z"/>
<path fill="#97D2E7" opacity="1.000000" stroke="none" 
	d="
M236.908478,430.103027 
	C237.364700,428.165619 238.265930,425.126862 238.539856,425.182404 
	C241.278229,425.737549 244.124939,426.460175 246.463730,427.907135 
	C247.291534,428.419250 247.236130,432.366394 246.854584,432.489777 
	C244.853912,433.136749 242.562805,433.422546 240.487030,433.099243 
	C239.237595,432.904633 238.196854,431.370148 236.908478,430.103027 
z"/>
<path fill="#97D2E7" opacity="1.000000" stroke="none" 
	d="
M260.683716,439.688721 
	C259.227692,437.753540 258.147369,435.971985 257.067017,434.190430 
	C258.881104,433.342316 260.890350,431.547577 262.462738,431.871765 
	C264.722931,432.337708 266.665100,434.346405 268.743011,435.696594 
	C267.816772,437.067841 267.174164,438.959686 265.883820,439.662598 
	C264.618530,440.351868 262.694366,439.831665 260.683716,439.688721 
z"/>
<path fill="#97D2E7" opacity="1.000000" stroke="none" 
	d="
M285.110962,440.394653 
	C283.094818,438.876099 281.451477,437.394470 279.808167,435.912842 
	C281.501495,434.617004 283.203339,432.270599 284.886108,432.284210 
	C287.122345,432.302277 290.828522,433.729004 291.288025,435.310364 
	C292.573059,439.732910 288.655457,440.033630 285.110962,440.394653 
z"/>
<path fill="#97D2E7" opacity="1.000000" stroke="none" 
	d="
M210.950317,392.890350 
	C212.452393,393.570618 213.829010,393.999298 214.634674,394.924896 
	C216.560791,397.137970 218.222626,400.030792 215.536057,402.365112 
	C212.986191,404.580566 210.363174,402.695984 208.943726,400.279572 
	C207.354736,397.574554 205.698563,394.372345 210.950317,392.890350 
z"/>
<path fill="#97D2E7" opacity="1.000000" stroke="none" 
	d="
M196.792725,379.679565 
	C197.901169,379.498322 199.121475,379.161591 199.426712,379.547913 
	C201.001129,381.540436 202.340973,383.718262 203.762680,385.831451 
	C202.172760,386.208679 200.220993,387.354126 199.065216,386.809723 
	C196.315048,385.514221 193.939362,383.420319 196.792725,379.679565 
z"/>
<path fill="#97D2E7" opacity="1.000000" stroke="none" 
	d="
M308.526489,427.056763 
	C308.622437,429.494812 308.339813,431.818451 308.008240,434.531891 
	C304.984711,435.165253 301.837952,434.810944 301.847168,431.187622 
	C301.856415,427.541321 304.844055,426.603760 308.526489,427.056763 
z"/>
<path fill="#97D2E7" opacity="1.000000" stroke="none" 
	d="
M183.668396,374.435852 
	C182.732346,370.304871 185.460190,370.303131 187.548035,371.135773 
	C188.961121,371.699341 189.757828,373.808441 190.830215,375.226288 
	C189.135208,375.571503 187.449493,376.075439 185.740143,376.175415 
	C185.145905,376.210144 184.493195,375.245239 183.668396,374.435852 
z"/>
<path fill="#7CBAE6" opacity="1.000000" stroke="none" 
	d="
M515.593323,572.779175 
	C515.479919,573.122131 515.088684,573.552063 514.396973,574.025452 
	C514.502869,573.668030 514.909180,573.267090 515.593323,572.779175 
z"/>
<path fill="#010101" opacity="1.000000" stroke="none" 
	d="
M324.499878,391.486755 
	C324.529419,391.474091 324.470306,391.499420 324.499878,391.486755 
z"/>
<path fill="#FEFDFD" opacity="1.000000" stroke="none" 
	d="
M278.950073,291.959106 
	C270.279938,271.598663 270.406372,251.712357 280.464661,232.330353 
	C284.939453,223.707611 291.496246,216.749176 301.382355,214.206619 
	C313.108368,211.190842 322.206085,216.061981 329.681122,224.643814 
	C336.564819,232.546753 340.235352,242.064148 341.489746,252.295593 
	C343.431793,268.136353 342.288635,283.622437 333.272705,297.530029 
	C319.046356,319.474854 295.707977,319.269440 281.753082,297.116821 
	C280.778595,295.569916 279.986145,293.908386 278.950073,291.959106 
M303.056305,295.717407 
	C312.916779,299.622437 321.212677,296.819672 327.537354,287.446503 
	C336.188690,274.625214 336.214630,253.934540 327.595520,241.016418 
	C318.480530,227.355118 302.794159,227.110870 294.213043,241.094894 
	C285.006073,256.098877 285.176086,271.769592 294.045776,286.968414 
	C295.965179,290.257477 299.580719,292.556671 303.056305,295.717407 
z"/>
<path fill="#FEFDFD" opacity="1.000000" stroke="none" 
	d="
M513.803467,222.183212 
	C527.624268,236.568527 530.439087,253.946198 528.508057,272.437256 
	C527.241638,284.565155 523.092834,295.688171 514.127014,304.580048 
	C500.694672,317.901611 482.977692,316.700623 471.398315,301.549927 
	C454.950989,280.029907 455.432831,245.431320 472.473907,224.314743 
	C483.463684,210.696701 500.707245,209.696548 513.803467,222.183212 
M470.352509,248.043610 
	C465.757416,262.432983 466.079926,276.376190 475.240509,288.974457 
	C483.642090,300.528839 497.162018,300.492035 506.029846,289.336517 
	C516.752319,275.848053 516.544373,251.722626 505.591675,238.494263 
	C497.228088,228.392944 484.886993,228.084808 476.381104,238.036987 
	C474.049347,240.765289 472.572968,244.224655 470.352509,248.043610 
z"/>
<path fill="#AD5E53" opacity="1.000000" stroke="none" 
	d="
M395.692261,338.502808 
	C403.531403,339.397217 408.816650,336.246796 412.695251,329.962646 
	C413.575592,328.536346 415.716461,327.887970 417.277100,326.881531 
	C417.394775,328.789154 418.245636,331.062103 417.507568,332.543335 
	C413.600525,340.384460 406.910950,344.495209 398.235718,344.460449 
	C389.734314,344.426392 383.271240,340.220856 379.429810,332.614532 
	C378.678101,331.126099 379.484894,328.850555 379.572906,326.938049 
	C381.141327,327.903503 383.296112,328.503204 384.169037,329.902527 
	C386.862579,334.220154 390.211334,337.369568 395.692261,338.502808 
z"/>
<path fill="#AD5E53" opacity="1.000000" stroke="none" 
	d="
M389.950317,308.860474 
	C390.660461,302.648834 393.747894,299.349365 398.476929,299.326233 
	C402.706757,299.305542 406.542938,302.685883 407.043610,306.875061 
	C407.600433,311.533997 404.915192,315.486694 400.426483,316.615570 
	C395.713776,317.800781 391.725891,314.996216 389.950317,308.860474 
z"/>
<path fill="#AD5E53" opacity="1.000000" stroke="none" 
	d="
M302.735657,295.514587 
	C299.580719,292.556671 295.965179,290.257477 294.045776,286.968414 
	C285.176086,271.769592 285.006073,256.098877 294.213043,241.094894 
	C302.794159,227.110870 318.480530,227.355118 327.595520,241.016418 
	C336.214630,253.934540 336.188690,274.625214 327.537354,287.446503 
	C321.212677,296.819672 312.916779,299.622437 302.735657,295.514587 
M300.641327,242.548218 
	C296.110535,243.247650 293.876892,245.906006 294.596375,250.429550 
	C295.162598,253.989380 297.747559,255.905960 301.269623,255.776749 
	C304.805603,255.647064 307.229431,253.465652 307.552063,249.935516 
	C307.940735,245.683044 305.683502,243.129028 300.641327,242.548218 
z"/>
<path fill="#AD5E53" opacity="1.000000" stroke="none" 
	d="
M470.528290,247.696075 
	C472.572968,244.224655 474.049347,240.765289 476.381104,238.036987 
	C484.886993,228.084808 497.228088,228.392944 505.591675,238.494263 
	C516.544373,251.722626 516.752319,275.848053 506.029846,289.336517 
	C497.162018,300.492035 483.642090,300.528839 475.240509,288.974457 
	C466.079926,276.376190 465.757416,262.432983 470.528290,247.696075 
M478.254944,251.810181 
	C480.485596,252.836990 482.677155,254.501831 484.962128,254.641876 
	C486.251617,254.720886 488.589172,252.444229 488.846802,250.951233 
	C489.183044,249.002777 488.545654,246.075958 487.179810,244.874283 
	C485.840332,243.695831 482.171295,243.164307 481.118469,244.114624 
	C479.397247,245.668152 478.968750,248.653885 478.254944,251.810181 
z"/>
<path fill="#FBF7F7" opacity="1.000000" stroke="none" 
	d="
M301.006653,242.547607 
	C305.683502,243.129028 307.940735,245.683044 307.552063,249.935516 
	C307.229431,253.465652 304.805603,255.647064 301.269623,255.776749 
	C297.747559,255.905960 295.162598,253.989380 294.596375,250.429550 
	C293.876892,245.906006 296.110535,243.247650 301.006653,242.547607 
z"/>
<path fill="#FEFDFD" opacity="1.000000" stroke="none" 
	d="
M478.124939,251.422821 
	C478.968750,248.653885 479.397247,245.668152 481.118469,244.114624 
	C482.171295,243.164307 485.840332,243.695831 487.179810,244.874283 
	C488.545654,246.075958 489.183044,249.002777 488.846802,250.951233 
	C488.589172,252.444229 486.251617,254.720886 484.962128,254.641876 
	C482.677155,254.501831 480.485596,252.836990 478.124939,251.422821 
z"/>
</svg>